<?xml version="1.0" encoding="utf-8"?>
<!-- Generator: Adobe Illustrator 23.0.1, SVG Export Plug-In . SVG Version: 6.00 Build 0)  -->
<svg version="1.1" id="Layer_1" xmlns="http://www.w3.org/2000/svg" xmlns:xlink="http://www.w3.org/1999/xlink" x="0px" y="0px"
	 viewBox="0 0 841.89 595.28" style="enable-background:new 0 0 841.89 595.28;" xml:space="preserve">
<style type="text/css">
	.st0{fill:#F72D7E;}
	.st1{fill:#AC2FB4;}
</style>
<g>
	<path class="st0" d="M251.87,356.37c1.84,0,3.04,0.53,3.61,1.59c0.56,1.06,0.76,2.1,0.59,3.12c-0.17,1.02-0.58,1.76-1.23,2.23
		c-0.65,0.47-1.26,0.11-1.82-1.08c-0.99-2.21-2.3-2.88-3.92-2.01c-1.63,0.86-3.14,2.27-4.54,4.22c-1.4,1.95-2.47,3.95-3.2,6
		c-0.74,2.05-0.71,3.17,0.08,3.37c1.27,0.37,3.02,0.78,5.26,1.25c2.23,0.47,4.03,1.31,5.39,2.52c1.36,1.21,1.77,2.97,1.25,5.26
		s-2.9,5.46-7.14,9.5c-4.41,4.16-8.03,6.54-10.86,7.14c-2.83,0.61-4.89,0.38-6.19-0.7c-1.3-1.07-1.89-2.52-1.76-4.33
		c0.13-1.81,0.95-3.05,2.48-3.73c1.04-0.42,1.54,0.04,1.48,1.38c-0.06,1.34,0.04,2.57,0.28,3.69c0.24,1.12,0.97,1.61,2.18,1.48
		c1.21-0.13,3.62-1.93,7.21-5.41c0.34-0.34,0.95-1.07,1.82-2.21c0.88-1.13,1.7-2.34,2.46-3.63c0.76-1.29,1.33-2.52,1.7-3.69
		s0.21-2-0.47-2.48c-0.48-0.2-2.04-0.46-4.69-0.78c-2.64-0.32-4.88-1.1-6.72-2.31c-1.84-1.21-2.52-3.07-2.04-5.58
		c0.48-2.5,3.63-6.03,9.46-10.58c1.16-1.16,2.52-2.2,4.07-3.12C248.16,356.58,249.92,356.2,251.87,356.37z"/>
	<path class="st0" d="M293.51,354.72c3.56-0.76,5.16,1.29,4.81,6.15c-0.35,4.86-1.67,9.9-3.96,15.1c-2.29,5.2-5.07,9.24-8.33,12.1
		c-3.27,2.87-6.04,1.94-8.33-2.78c-0.93-1.55-1.52-3.25-1.76-5.09c-0.24-1.84-0.45-3.82-0.61-5.94c-1.53,3.7-3.64,7.52-6.34,11.45
		c-2.7,3.93-5.13,6.47-7.29,7.61c-2.16,1.14-3.63,0.16-4.41-2.95c-0.78-3.11-0.02-9.88,2.27-20.31c0.42-2.09,1.12-3.58,2.1-4.45
		c0.97-0.88,1.95-1.36,2.93-1.44c0.98-0.08,1.82,0.11,2.52,0.59c0.71,0.48,1.02,1,0.93,1.57c-0.11,0.11-0.8,1.86-2.06,5.24
		c-1.26,3.38-2.35,6.68-3.26,9.9c-0.92,3.22-1.28,5.51-1.08,6.85c0.2,1.34,1.7,0.04,4.49-3.92c1.72-2.4,3.17-4.96,4.32-7.67
		c1.16-2.71,2.25-5.22,3.29-7.51c1.03-2.29,2.13-4.19,3.29-5.7c1.16-1.51,2.63-2.27,4.41-2.27c0.76,0,1.07,1.19,0.91,3.56
		c-0.16,2.37-0.3,4.97-0.42,7.78c-0.13,2.81,0,5.38,0.38,7.7c0.38,2.32,1.51,3.42,3.37,3.31c1.13-0.08,2.49-1.46,4.07-4.11
		s2.85-5.52,3.8-8.59c0.95-3.07,1.32-5.79,1.12-8.18c-0.2-2.39-1.5-3.37-3.9-2.95c-0.99,0.11-1.49-0.06-1.51-0.53
		c-0.01-0.47,0.22-1.02,0.7-1.65c0.48-0.64,1.07-1.24,1.78-1.82C292.43,355.18,293.02,354.83,293.51,354.72z"/>
	<path class="st0" d="M299.12,407.46c-2.42,0.25-4.46,1.2-6.13,2.84c0.39,0.2,0.79,0.52,1.19,0.95c0.39,0.44,0.68,0.95,0.85,1.55
		c0.17,0.59,0.17,1.23,0,1.91c-0.17,0.68-0.61,1.38-1.32,2.12c-0.85,0.85-1.83,1.14-2.95,0.89c-1.12-0.25-2-0.81-2.65-1.65
		c-0.11-0.03-0.14-0.04-0.08-0.04c-0.68-0.93-1.1-1.91-1.25-2.93c-0.15-1.02,0.04-2.01,0.57-2.97c1.24-2.32,2.97-3.89,5.17-4.73
		c2.21-0.83,4.46-1.24,6.76-1.21c2.3,0.03,4.46,0.35,6.49,0.95c2.02,0.61,3.46,1.21,4.3,1.8c0.17-0.74,0.3-1.34,0.4-1.82
		c0.1-0.48,0.2-0.97,0.3-1.46c0.1-0.5,0.21-1.05,0.34-1.65c0.13-0.61,0.3-1.38,0.53-2.31c0.59-2.91,1.1-5.39,1.53-7.42
		s0.85-4.19,1.29-6.47s0.8-4.26,1.08-5.96c0.08-0.34,0.26-1.46,0.53-3.35c0.27-1.89,0.55-3.92,0.85-6.08c0.3-2.16,0.69-5,1.17-8.5
		c0.03-0.51,0.47-0.81,1.32-0.91c0.85-0.1,1.71-0.01,2.59,0.25c0.88,0.27,1.57,0.74,2.08,1.42c0.51,0.68,0.43,1.57-0.25,2.67
		c1.78-1.89,4.01-3.76,6.68-5.6c2.67-1.84,5.16-2.94,7.46-3.31c2.3-0.37,4.13,0.35,5.49,2.14c1.35,1.79,1.62,5.38,0.81,10.75
		c-0.71,4.38-2.18,8.22-4.43,11.51c-2.25,3.29-4.6,5.82-7.06,7.59c-2.46,1.77-4.71,2.64-6.76,2.61c-2.05-0.03-3.24-1.19-3.58-3.48
		c-0.14-1.44,0.13-2.98,0.83-4.62c0.69-1.64,1.38-2.86,2.06-3.67c0.68-0.81,1.11-0.92,1.29-0.34c0.18,0.58-0.3,2.37-1.46,5.36
		c-0.93,2.06-0.87,3.14,0.19,3.22c1.06,0.08,2.45-0.52,4.18-1.82c1.72-1.3,3.45-3.14,5.17-5.51c1.72-2.37,2.78-4.97,3.18-7.8
		c0.25-1.78,0.41-3.56,0.47-5.34c0.06-1.78-0.16-3.19-0.66-4.24c-0.5-1.04-1.34-1.54-2.52-1.48c-1.19,0.06-2.9,1.06-5.13,3.01
		c-1.95,1.44-3.44,2.82-4.47,4.13c-1.03,1.31-1.8,2.64-2.31,3.96c-1.21,6.56-2.54,12.59-3.99,18.11c-1.44,5.51-2.63,9.96-3.56,13.36
		c-0.25,0.9-0.45,1.53-0.59,1.86c-0.14,0.34-0.26,0.62-0.36,0.83c-0.1,0.21-0.21,0.48-0.32,0.81c-0.11,0.32-0.27,0.93-0.47,1.8
		c2.49,1.53,4.28,3.26,5.38,5.19c1.1,1.94,1.75,4.53,1.95,7.78c0.2,3.25-0.76,7.36-2.88,12.34c-0.31,0.65-0.79,1.3-1.44,1.95
		c-0.65,0.65-1.36,1.24-2.14,1.78c-0.78,0.54-1.59,0.99-2.44,1.36s-1.61,0.59-2.29,0.68c-1.5,0.28-2.82-0.63-3.96-2.74
		c-1.14-2.11-1.55-5.27-1.21-9.48c0.25-2.66,1.64-8.34,4.15-17.05c0.03-0.17,0.11-0.3,0.25-0.38c0.14-0.09,0.24-0.2,0.3-0.34
		c-1.13-0.59-2.12-1.13-2.97-1.61C304.05,407.62,301.54,407.21,299.12,407.46z M310.11,424.87c-0.75,3.83-1.28,6.76-1.59,8.8
		c1.19,0.34,2.46-0.06,3.82-1.19c1.36-1.13,2.54-2.79,3.56-4.96c1.16-2.68,1.6-5.46,1.34-8.33c-0.27-2.87-1.62-5.28-4.05-7.23
		C311.88,416.73,310.85,421.04,310.11,424.87z"/>
	<path class="st0" d="M354.95,390.97c1.27,0.11,2.66-0.26,4.18-1.12c1.51-0.86,2.99-1.89,4.43-3.1c1.44-1.2,2.77-2.44,3.99-3.71
		c1.21-1.27,2.18-2.26,2.88-2.97c0.42-0.17,0.68-0.29,0.76-0.36c0.08-0.07,0.34,0.11,0.76,0.53c-0.79,2.2-2.36,4.46-4.71,6.76
		c-2.35,2.3-4.9,4.11-7.68,5.41c-2.77,1.3-5.48,1.86-8.12,1.68c-2.64-0.18-4.66-1.66-6.04-4.43c-0.9-1.78-1.2-3.79-0.89-6.04
		c0.31-2.25,0.96-4.52,1.95-6.81c0.85-2.04,1.84-3.95,2.97-5.75c1.13-1.79,2.16-3.24,3.1-4.35c0.93-1.27,2.04-2.56,3.33-3.86
		c1.29-1.3,2.66-2.52,4.11-3.67c1.46-1.14,2.98-2.17,4.56-3.07c1.58-0.9,3.14-1.6,4.66-2.08c1.55-0.42,2.85-0.44,3.88-0.04
		c1.03,0.4,1.91,1.55,2.65,3.48c0.68,1.95,0.62,4.06-0.17,6.34c-0.79,2.28-2.08,4.39-3.86,6.34c-1.78,1.95-3.98,3.59-6.59,4.92
		c-2.61,1.33-5.41,2.04-8.37,2.12c-0.74,0-1.37-0.01-1.91-0.02s-1.02-0.12-1.44-0.32c-0.23,0.59-0.59,1.65-1.08,3.16
		c-0.5,1.51-0.87,3.07-1.12,4.69s-0.25,3.04,0,4.28s1.02,1.91,2.29,1.99C353.89,390.97,354.38,390.97,354.95,390.97z M373.05,358.74
		c-0.11-0.42-0.41-0.69-0.89-0.78c-0.48-0.1-0.99-0.11-1.53-0.02c-0.54,0.08-1.03,0.22-1.48,0.4c-0.45,0.18-0.72,0.32-0.81,0.4
		c-2.77,1.81-5.3,4.1-7.59,6.87c-2.35,2.8-4.44,5.78-6.28,8.95c1.92,0,3.86-0.47,5.81-1.4c1.95-0.93,3.77-2.16,5.47-3.69
		c1.7-1.53,3.19-3.23,4.47-5.11C371.52,362.48,372.46,360.61,373.05,358.74z"/>
	<g>
		<path class="st1" d="M355.66,323.58c0.57-0.89,1.34-1.91,2.31-3.06c1.97-2.68,4.48-5.44,7.55-8.27c3.06-2.83,6.4-5.42,10.02-7.79
			c3.62-2.36,7.36-4.29,11.22-5.77c3.87-1.49,7.63-2.23,11.28-2.23c2.9,0.07,5.52,0.96,7.87,2.66c2.34,1.7,4.25,4.22,5.72,7.55
			c1.47,3.33,2.4,7.46,2.79,12.41c0.39,4.94,0.07,10.67-0.97,17.19c0.72-1.29,1.56-2.72,2.52-4.3c0.97-1.58,1.97-3.12,3.01-4.62
			c1.04-1.5,2.06-2.9,3.06-4.19c1-1.29,1.91-2.33,2.74-3.12c2.47-3.12,5.17-5.82,8.11-8.11c2.93-2.29,6.09-3.9,9.45-4.83
			c2.11-0.54,3.82-0.29,5.13,0.75c1.31,1.04,2.3,2.43,2.98,4.16s1.1,3.63,1.26,5.69c0.16,2.06,0.15,3.84-0.03,5.34
			c-0.64,5.12-1.96,11.4-3.95,18.85c-1.99,7.45-4.16,15.14-6.53,23.09c-2.36,7.95-4.68,15.65-6.95,23.09
			c-2.27,7.45-4.04,13.75-5.29,18.9c-0.43,1.58-0.77,3.3-1.02,5.18c-0.25,1.88-0.43,3.73-0.54,5.56c-0.11,1.83-0.15,3.51-0.13,5.05
			c0.02,1.54,0.13,2.74,0.35,3.6c0.21,0.82,0.46,1.68,0.75,2.58c0.68,1.93,1.71,3.71,3.09,5.34c1.38,1.63,3.25,3.03,5.61,4.22
			c0.93,0.39,1.97,0.64,3.11,0.75c-0.18-0.64-0.23-1.36-0.16-2.15c0.07-0.79,0.32-1.51,0.75-2.18c0.43-0.66,1.03-1.21,1.8-1.64
			c0.77-0.43,1.8-0.59,3.09-0.48c1.43,0.07,2.53,0.72,3.3,1.93c0.77,1.22,1.03,2.52,0.78,3.92c0,0.14,0.02,0.21,0.05,0.21
			c-0.21,1.36-0.76,2.53-1.64,3.52c-0.88,0.98-1.96,1.67-3.25,2.07c-3.19,1.07-6.15,1.08-8.89,0.03c-2.74-1.06-5.12-2.77-7.14-5.16
			c-2.02-2.38-3.62-5.25-4.78-8.59c-1.16-3.35-1.75-6.79-1.75-10.34c-0.04-2.26,0.03-4.33,0.19-6.23c0.16-1.9,0.43-3.84,0.81-5.83
			c0.38-1.99,0.85-4.13,1.42-6.44c0.57-2.31,1.25-5,2.04-8.08c1.07-4.4,2.41-9.65,4-15.73s3.14-12.19,4.65-18.31
			c1.5-6.12,2.84-11.86,4-17.21c1.16-5.35,1.87-9.53,2.12-12.54c0.22-4.19-0.03-7.2-0.72-9.02c-0.7-1.83-1.69-2.82-2.98-2.98
			c-1.29-0.16-2.76,0.34-4.4,1.5c-1.65,1.16-3.29,2.66-4.94,4.48l-9.08,13c-3.29,4.58-6.03,9.76-8.22,15.52
			c-2.18,5.76-4.03,11.49-5.53,17.19c-1.5,5.69-2.77,11-3.81,15.92c-1.04,4.92-2.04,8.83-3.01,11.73l-5.69-0.7
			c1.65-5.51,3.54-12.41,5.67-20.68c2.13-8.27,3.95-16.7,5.45-25.29c1.5-8.59,2.44-16.73,2.82-24.41s-0.35-13.7-2.18-18.07
			c-0.97-2.47-2.06-4.27-3.28-5.4c-1.22-1.13-2.53-1.82-3.95-2.07c-1.42-0.25-2.95-0.2-4.62,0.16c-1.66,0.36-3.46,0.8-5.4,1.34
			c-3.33,1.29-6.71,3.06-10.15,5.32c-3.44,2.26-6.68,4.78-9.72,7.57c-3.04,2.79-5.76,5.75-8.16,8.86c-2.4,3.12-4.23,6.18-5.48,9.18
			c-1.5,3.54-1.92,6.77-1.24,9.67c0.68,2.9,1.99,5.36,3.92,7.38c1.93,2.02,4.3,3.53,7.09,4.51c2.79,0.99,5.53,1.32,8.22,0.99
			c2.58-0.25,4.92-0.94,7.04-2.07c2.11-1.13,3.91-2.53,5.4-4.22c1.49-1.68,2.58-3.56,3.28-5.64c0.7-2.07,0.94-4.19,0.73-6.34
			c-0.54,0.32-1.19,0.52-1.96,0.59c-0.77,0.07-1.53-0.04-2.28-0.35c-0.75-0.3-1.42-0.81-2.01-1.5c-0.59-0.7-0.97-1.67-1.15-2.93
			c-0.14-1.07-0.04-1.97,0.3-2.68c0.34-0.72,0.81-1.29,1.4-1.72c0.59-0.43,1.25-0.73,1.99-0.89c0.73-0.16,1.42-0.24,2.07-0.24
			c1.36,0.11,2.52,0.53,3.49,1.26c0.97,0.73,1.79,1.71,2.47,2.93c1.75,3.15,2.27,6.26,1.56,9.34c-0.72,3.08-2.24,5.87-4.56,8.38
			c-2.33,2.51-5.23,4.6-8.7,6.28c-3.47,1.68-7.09,2.7-10.85,3.06c-0.97,0.14-1.45,0.2-1.45,0.16c-0.64,0.11-1.03,0.14-1.15,0.11
			c-0.13-0.04-0.49-0.05-1.1-0.05c-3.22,0-6.49-0.7-9.8-2.09c-3.31-1.4-5.84-3.55-7.57-6.47c-1.74-2.92-2.29-6.62-1.67-11.12
			C348.25,335.07,350.93,329.74,355.66,323.58z"/>
	</g>
	<g>
		<path class="st0" d="M461.72,351.65c2.12,0.85,4.32,1.34,6.6,1.48c2.27,0.14,4.42-0.04,6.44-0.55c2.02-0.51,3.82-1.33,5.39-2.46
			c1.57-1.13,2.73-2.56,3.5-4.28c-0.51,0-1.04-0.12-1.59-0.36c-0.55-0.24-1.02-0.62-1.42-1.12c-0.4-0.51-0.65-1.12-0.76-1.84
			c-0.11-0.72,0.03-1.55,0.43-2.48c0.45-0.96,1.23-1.58,2.33-1.84c1.1-0.27,2.16-0.11,3.18,0.49c0.06-0.06,0.1-0.06,0.13,0
			c0.93,0.59,1.65,1.33,2.16,2.2c0.51,0.88,0.75,1.85,0.72,2.93c-0.06,2.83-0.92,5.08-2.59,6.76c-1.67,1.68-3.77,2.88-6.32,3.58
			c-2.55,0.71-5.34,0.98-8.4,0.83s-5.98-0.66-8.78-1.51c-4.5-1.3-8.27-3.14-11.32-5.51c-3.05-2.37-4.88-4.9-5.47-7.59
			c-0.59-2.68,0.26-5.33,2.57-7.93c2.3-2.6,6.56-4.79,12.78-6.57c12.83-3.82,23.23-3.46,31.18,1.08
			c7.96,4.54,12.96,10.24,14.99,17.11c2.04,6.87,0.84,13.39-3.58,19.57c-4.42,6.18-12.59,8.98-24.49,8.42
			c2.88,0.42,6.18,1.9,9.88,4.43c3.7,2.53,6.47,5.49,8.29,8.88c1.82,3.39,2.03,6.9,0.62,10.52c-1.42,3.62-5.81,6.74-13.19,9.37
			c-2.12,0.62-4.28,0.99-6.47,1.1c-2.19,0.11-4.18,0.04-5.98-0.23c-1.8-0.27-3.29-0.71-4.47-1.31c-1.19-0.61-1.84-1.34-1.95-2.18
			c2.04,0.85,3.83,1.42,5.39,1.72c1.55,0.3,3.1,0.32,4.62,0.06c6.93-1.27,11.26-3.51,13.02-6.72c1.75-3.21,2.04-6.59,0.87-10.16
			c-1.17-3.56-3.23-6.87-6.17-9.92c-2.94-3.05-5.64-5-8.1-5.85c-0.76-0.25-1.19-0.54-1.29-0.85c-0.1-0.31,0-0.59,0.3-0.85
			c0.3-0.25,0.74-0.45,1.34-0.57c0.59-0.13,1.21-0.12,1.86,0.02c0.65,0.17,2.13,0.07,4.45-0.3c2.32-0.37,4.75-1.28,7.29-2.73
			c2.54-1.46,4.85-3.62,6.91-6.49c2.06-2.87,3.16-6.74,3.31-11.6c0.11-6.61-1.34-11.75-4.35-15.41c-3.01-3.66-6.77-6.05-11.28-7.17
			c-4.51-1.12-9.37-1.07-14.58,0.15c-5.22,1.22-9.96,3.42-14.23,6.61c-1.7,1.36-2.88,2.76-3.56,4.2c-0.68,1.44-0.93,2.88-0.76,4.33
			c0.17,1.44,0.71,2.82,1.61,4.13c0.9,1.31,2.08,2.52,3.52,3.63c0.76,0.59,1.48,1.07,2.14,1.42c0.67,0.35,1.51,0.71,2.52,1.08
			C461.47,351.58,461.72,351.68,461.72,351.65z M460.22,402.79c0.69-4.01,1.63-8.77,2.82-14.27c1.19-5.5,2.27-10.99,3.24-16.47
			c0.97-5.48,1.21-9.5,0.7-12.04c-0.14-1.02,0.08-1.82,0.68-2.42c0.59-0.59,1.28-1.03,2.06-1.31c0.78-0.28,1.53-0.44,2.25-0.47
			c0.72-0.03,1.15,0.01,1.29,0.13c0.76,0.76,0.68,3.49-0.23,8.16c-0.92,4.68-2.14,9.86-3.67,15.56c-1.53,5.7-3.07,11.19-4.64,16.49
			c-1.57,5.3-2.61,9.01-3.12,11.13c0,0.25-0.03,0.47-0.08,0.64c-0.06,0.17-0.28,0.25-0.68,0.25
			C459.73,408.6,459.52,406.8,460.22,402.79z"/>
		<path class="st0" d="M534.86,363.27c1.05,0.48,1.7,1.24,1.97,2.27s0.28,1.99,0.04,2.86c-0.24,0.88-0.65,1.51-1.23,1.91
			c-0.58,0.4-1.21,0.2-1.89-0.59c-1.39-1.36-3.5-0.83-6.36,1.57c-2.86,2.4-5.67,5.34-8.44,8.82c-2.77,3.48-5.09,6.85-6.95,10.11
			c-1.86,3.26-2.5,5.07-1.91,5.41c0.76,0.71,2.19,0.32,4.28-1.14c2.09-1.47,4.3-3.4,6.61-5.79c2.32-2.39,4.48-4.93,6.49-7.63
			c2.01-2.7,3.31-4.94,3.9-6.72c0-0.17,0.09-0.29,0.25-0.36c0.17-0.07,0.25-0.2,0.25-0.4c2.04-0.17,3.12,0.12,3.26,0.87
			c0.14,0.75-0.13,1.77-0.83,3.07c-0.69,1.3-1.57,2.79-2.63,4.45c-1.06,1.67-1.79,3.35-2.18,5.05c-0.34,1.27-0.33,2.47,0.04,3.6
			c0.34,0.99,0.74,1.46,1.21,1.4s0.95-0.25,1.46-0.59c0.51-0.34,1.05-0.64,1.63-0.89c0.58-0.25,1.17-0.1,1.76,0.47
			c0.08,1.07-0.48,2.22-1.7,3.43c-1.22,1.21-2.56,2.12-4.03,2.71c-1.47,0.59-2.82,0.71-4.05,0.34s-1.84-1.61-1.84-3.73
			c0-0.9,0-1.71,0-2.42c0-0.71,0-1.43,0-2.16c-4.18,5.34-8.05,8.79-11.6,10.35c-3.55,1.55-6,1.51-7.36-0.13
			c-1.36-1.64-1.26-4.76,0.3-9.37c1.55-4.61,5.34-10.46,11.36-17.55c0.68-0.93,1.77-2.09,3.26-3.48c1.5-1.38,3.14-2.63,4.92-3.73
			c1.78-1.1,3.57-1.9,5.36-2.4C532.06,362.38,533.59,362.51,534.86,363.27z"/>
		<path class="st0" d="M547.97,367.56c-0.59,3.28-1.03,6.22-1.31,8.82c0.51-1.07,1.56-2.32,3.16-3.75c1.6-1.43,3.36-2.64,5.28-3.63
			c1.92-0.99,3.81-1.55,5.66-1.7c1.85-0.14,3.3,0.55,4.35,2.08c1.02,1.27,1.2,2.71,0.55,4.33c-0.65,1.61-1.63,3.17-2.93,4.69
			c-1.3,1.51-2.69,2.84-4.16,3.99c-1.47,1.14-2.52,1.87-3.14,2.18c0.73,1.44,1.31,3.36,1.74,5.77c0.42,2.4,0.93,4.74,1.53,7.02
			c0.59,2.28,1.4,4.21,2.42,5.81c1.02,1.6,2.47,2.31,4.37,2.14c0.31,0,0.76-0.25,1.36-0.74c0.59-0.49,1.13-0.91,1.61-1.25
			c0.48-0.34,0.81-0.44,0.98-0.3c0.17,0.14,0,0.85-0.51,2.12c-0.14,0.31-0.79,0.9-1.95,1.78c-1.16,0.88-2.53,1.33-4.11,1.36
			c-1.58,0.03-3.23-0.73-4.94-2.27s-3.17-4.56-4.39-9.05c-0.34-1.21-0.59-2.44-0.74-3.69c-0.15-1.24-0.32-2.36-0.49-3.35
			c-0.17-0.99-0.41-1.77-0.72-2.33c-0.31-0.56-0.78-0.79-1.4-0.68c-1.56,0.59-2.72,1.05-3.5,1.38c-0.78,0.33-1.34,0.71-1.67,1.17
			c-0.42,0.57-0.66,1.54-0.7,2.93c-0.04,1.39-0.18,3.15-0.4,5.3c-0.11,0.06-0.4,0.11-0.85,0.17c-0.45,0.06-0.95,0.09-1.48,0.09
			c-0.54,0-1.07-0.01-1.59-0.04c-0.52-0.03-0.91-0.1-1.17-0.21c0-0.62,0-1.44,0-2.46c0-1.02,0-1.98,0-2.88
			c0.08-1.72,0.25-3.99,0.51-6.78c0.25-2.8,0.64-5.94,1.14-9.41c0.51-3.48,1.14-7.17,1.89-11.09c0.75-3.91,1.63-7.87,2.65-11.85
			c0.39-1.41,0.78-2.67,1.14-3.77c1.13-4.69,2.3-8.82,3.5-12.38c1.2-3.56,2.52-6.28,3.97-8.14c1.53-1.95,3.21-3.74,5.04-5.36
			s3.77-2.86,5.79-3.71c2.02-0.85,4.08-1.2,6.19-1.06c2.11,0.14,4.19,0.97,6.25,2.5c0.93,0.68,1.52,1.51,1.76,2.48
			c0.24,0.97,0.28,1.97,0.11,2.99c-0.06,0.08-0.1,0.18-0.13,0.3c-0.28,1.07-0.88,1.91-1.8,2.52c-0.92,0.61-1.89,0.74-2.9,0.4
			c-0.99-0.34-1.72-0.79-2.18-1.36c-0.47-0.57-0.74-1.14-0.83-1.74c-0.08-0.59-0.04-1.18,0.13-1.76c0.17-0.58,0.41-1.07,0.72-1.46
			c-2.18-0.79-4.43-0.8-6.74-0.02c-2.32,0.78-4.28,2.34-5.89,4.69c-1.84,3.05-3.41,6.54-4.71,10.47c-1.3,3.93-2.37,7.75-3.22,11.45
			c-0.85,3.7-1.5,7-1.97,9.9c-0.47,2.9-0.78,4.81-0.95,5.74c-0.2,1.13-0.3,1.71-0.3,1.74V367.56z M559.54,371.12
			c-0.76-1.02-1.94-1.14-3.52-0.38c-1.58,0.76-3.18,1.99-4.79,3.69c-1.61,1.7-3.07,3.66-4.37,5.89c-1.3,2.23-2.04,4.33-2.2,6.28
			c2.52-0.51,4.78-1.46,6.78-2.86c2.01-1.4,3.68-2.91,5.02-4.52c1.34-1.61,2.3-3.17,2.86-4.69
			C559.89,373.02,559.97,371.88,559.54,371.12z"/>
		<path class="st0" d="M575.4,396.77c1.27,0.11,2.66-0.26,4.18-1.12s2.99-1.89,4.43-3.1c1.44-1.2,2.77-2.44,3.99-3.71
			c1.21-1.27,2.18-2.26,2.88-2.97c0.42-0.17,0.68-0.29,0.76-0.36c0.08-0.07,0.34,0.11,0.76,0.53c-0.79,2.2-2.36,4.46-4.71,6.76
			c-2.35,2.3-4.9,4.11-7.68,5.41c-2.77,1.3-5.48,1.86-8.12,1.68c-2.64-0.18-4.66-1.66-6.04-4.43c-0.9-1.78-1.2-3.79-0.89-6.04
			c0.31-2.25,0.96-4.52,1.95-6.81c0.85-2.04,1.84-3.95,2.97-5.75c1.13-1.79,2.16-3.24,3.1-4.35c0.93-1.27,2.04-2.56,3.33-3.86
			c1.29-1.3,2.66-2.52,4.11-3.67c1.46-1.14,2.98-2.17,4.56-3.07c1.58-0.9,3.14-1.6,4.66-2.08c1.55-0.42,2.85-0.44,3.88-0.04
			c1.03,0.4,1.91,1.55,2.65,3.48c0.68,1.95,0.62,4.06-0.17,6.34c-0.79,2.28-2.08,4.39-3.86,6.34c-1.78,1.95-3.98,3.59-6.59,4.92
			c-2.61,1.33-5.41,2.04-8.37,2.12c-0.74,0-1.37-0.01-1.91-0.02c-0.54-0.01-1.02-0.12-1.44-0.32c-0.23,0.59-0.59,1.65-1.08,3.16
			c-0.5,1.51-0.87,3.07-1.12,4.69c-0.25,1.61-0.25,3.04,0,4.28s1.02,1.91,2.29,1.99C574.34,396.77,574.83,396.77,575.4,396.77z
			 M593.51,364.54c-0.11-0.42-0.41-0.69-0.89-0.78c-0.48-0.1-0.99-0.11-1.53-0.02c-0.54,0.08-1.03,0.22-1.48,0.4
			c-0.45,0.18-0.72,0.32-0.81,0.4c-2.77,1.81-5.3,4.1-7.59,6.87c-2.35,2.8-4.44,5.78-6.28,8.95c1.92,0,3.86-0.47,5.81-1.4
			c1.95-0.93,3.77-2.16,5.47-3.69c1.7-1.53,3.19-3.23,4.47-5.11C591.97,368.28,592.91,366.41,593.51,364.54z"/>
	</g>
	<path class="st0" d="M354.48,327.97c-11.57,0.55-32.31,2.58-38.34,10.11c-7.66,9.55-19.3,54.65-8.79,49.12
		c8.48-4.46,5.51-0.73,2.68,2.16c-2.08,2.13-5.58,2.03-7.48-0.26c-2.25-2.72-3.97-8.01-1.62-18.3c3.71-16.24,3.34-42.91,31.2-45.67
		c5.48-0.54,13.87-0.76,23.9-0.94"/>
	<path class="st0" d="M450.56,324.83c17.08-3.49,54.18-14.3,51.66-42.01c-3.27-35.91-73.86-15.37-73.86-15.37
		s-119.22,41.65-109.42,10.74c9.8-30.91,35.97-28.93,82.91-35.83s65.59,15.07,65.59,15.07c15.46-28.66-0.76-29.32-0.76-29.32
		c-81.59-16.25-132.59,19.74-132.59,19.74s-34.05,24.87-14.05,43.31c16.92,15.6,96.45-2.8,120.56-8.84
		c7.05-1.77,14.4-2.17,21.55-0.9c10.4,1.84,21.29,7.09,13.66,21.69c-3.39,6.49-12.82,10.92-25.41,13.95"/>
	<g>
		<path class="st0" d="M442.3,219.63c1.38-3.41,2.75-6.83,4.13-10.24c1.26-3.12,2.51-6.25,3.81-9.35c0.8-1.92,2.17-3.28,4.14-4.04
			c2.3-0.9,4.62-1.53,7.14-1.15c3.9,0.59,4.99,3.2,3.6,6.68c-1.64,4.11-3.55,8.12-5.37,12.16c-3.12,6.94-6.29,13.86-9.36,20.82
			c-0.57,1.29-1.31,1.74-2.73,1.74c-13.16-0.05-26.31-0.06-39.47,0c-1.56,0.01-2.36-0.43-3.01-1.91
			c-4.76-10.81-9.59-21.59-14.47-32.34c-1.99-4.4-0.06-7.13,4.67-7.26c2.64-0.08,5.21,0.57,7.49,2.08c1.52,1,2.29,2.48,2.93,4.08
			c2.55,6.33,5.09,12.66,7.84,18.94c-0.41-2.28-0.81-4.55-1.25-6.83c-0.78-4.08-1.6-8.15-2.35-12.23c-0.63-3.42-0.01-4.7,3.29-5.58
			c3.62-0.97,7.23-0.75,10.48,1.45c1.21,0.82,1.78,1.89,1.9,3.45c0.37,4.92,0.96,9.82,1.46,14.73c0.17,1.69,0.36,3.38,0.77,5.1
			c0.14-1.23,0.29-2.46,0.42-3.7c0.58-5.73,1.13-11.47,1.75-17.2c0.16-1.48,1.25-2.4,2.49-2.94c3.55-1.54,7.19-1.97,10.88-0.45
			c1.98,0.82,2.71,2.19,2.31,4.32c-1.17,6.16-2.37,12.32-3.56,18.48c-0.07,0.36-0.12,0.72-0.18,1.08
			C442.13,219.55,442.22,219.59,442.3,219.63z"/>
		<path class="st0" d="M426.55,177.71c-3.37,0.27-6.72,0.62-10.07,0.05c-4.77-0.81-9.26-2.21-12.31-6.36
			c-2.47-3.38-1.63-7.68,1.85-10.04c3.3-2.23,7.03-2.93,10.87-3.3c3.23-0.31,6.42-0.71,9.31-2.36c1.51-0.86,2.82-1.95,3.72-3.44
			c2-3.28,0.59-6.53-3.14-7.45c-1.25-0.31-2.54-0.2-3.79-0.34c-0.08-0.62,0.34-0.73,0.62-0.92c3.33-2.24,6.95-3.33,11-2.93
			c3.68,0.36,7.54,4.06,8.21,7.97c1.03,5.94-0.74,9.63-6.05,12.66c-1.48,0.85-2.93,1.75-4.38,2.65c-0.45,0.28-0.95,0.54-1.19,1.27
			c2.47-1.03,4.8-2.07,7.3-2.67c3.92-0.94,7.83-1.2,11.76-0.04c2.38,0.7,4.38,1.95,5.93,3.87c2.11,2.62,2.01,5.55,0.97,8.53
			c-1.12,3.23-3.46,5.49-6.14,7.47c-0.51,0.38-1.59,0.75-1.21,1.41c0.49,0.84,1.29,0.03,1.9-0.3c1.92-1.05,3.61-2.4,5.09-4
			c0.87-0.94,1.76-1.01,2.86-0.55c3.46,1.43,5.05,6.06,3.39,9.95c-0.29,0.68-0.62,1.35-1.01,1.97c-0.53,0.85-1.22,1.39-2.35,1.42
			c-3.88,0.09-7.32,1.33-10.09,4.14c-0.79,0.8-1.36,1.1-1.92-0.29c-0.43-1.08-1.38-1.82-2.42-2.4c-4.54-2.55-11.69-1.9-15.69,1.43
			c-0.07,0.06-0.13,0.13-0.21,0.18c-0.66,0.42-0.78,1.65-1.6,1.53c-0.58-0.09-1.03-0.98-1.57-1.47c-3.67-3.29-10.74-4.25-15.13-2.07
			c-1.4,0.69-2.55,1.7-3.32,3.04c-0.48,0.83-0.89,0.78-1.47,0.19c-3.07-3.12-6.88-4.37-11.16-4.3c-1.22,0.02-1.72-0.64-2.16-1.57
			c-2.34-4.94-0.32-11.21,4.51-13.91c0.88-0.49,1.79-0.94,2.77-1.24c1.76-0.54,3.25-0.36,4.92,0.7c4.86,3.1,10.28,3.88,15.94,3.03
			C422.98,178.94,424.83,178.58,426.55,177.71z"/>
	</g>
</g>
</svg>
