<svg xmlns="http://www.w3.org/2000/svg" width="64.369" height="85.99" viewBox="0 0 64.369 85.99"><g transform="translate(-115.441 -21.18)"><path d="M207.052,50.33a2.21,2.21,0,0,0-1.3-1.677c-.017-.007-.036-.007-.053-.013a23.884,23.884,0,0,0-.111-10.33c.021-.024.047-.042.067-.067a1.663,1.663,0,0,0,.328-1.407l-.591-2.653A1.653,1.653,0,0,0,204.373,33l-.819-4.759a3.711,3.711,0,0,0,1.639-2.983c0-2.248-2.286-4.076-5.1-4.076a5.791,5.791,0,0,0-3.459,1.094,6.018,6.018,0,0,0-6.918,0,5.793,5.793,0,0,0-3.459-1.094c-2.81,0-5.1,1.829-5.1,4.076a3.711,3.711,0,0,0,1.639,2.983L181.983,33a1.653,1.653,0,0,0-1.021,1.185l-.591,2.653a1.661,1.661,0,0,0,.327,1.407c.005.007.013.012.019.019a24.544,24.544,0,0,0-.022,10.368c-.031.01-.063.011-.094.023-1.273.5-1.739,2.253-1.059,4a3.326,3.326,0,0,0,2.8,2.357,1.977,1.977,0,0,0,.319-.029,11.562,11.562,0,0,0,4.84,6.652v2.433h-1.168l1.429,8.9H198.6l1.429-8.9H198.86V61.651a11.546,11.546,0,0,0,4.845-6.672,1.906,1.906,0,0,0,.313.029,3.323,3.323,0,0,0,2.794-2.357,4.125,4.125,0,0,0,.239-2.322ZM182.594,25.257c0-1.459,1.644-2.646,3.666-2.646a4.181,4.181,0,0,1,2.954,1.112.715.715,0,0,0,1.01,0,4.481,4.481,0,0,1,5.909,0,.715.715,0,0,0,1.01,0,4.184,4.184,0,0,1,2.954-1.112c2.021,0,3.666,1.187,3.666,2.646a2.456,2.456,0,0,1-1.359,2.031.716.716,0,0,0-.339.736l.835,4.854H183.456l.836-4.854a.714.714,0,0,0-.339-.736,2.456,2.456,0,0,1-1.359-2.031Zm-1.72,26.876c-.4-1.019-.2-1.974.246-2.146a.458.458,0,0,1,.172-.031.84.84,0,0,1,.312.084,29.677,29.677,0,0,0,.646,3.525,2.146,2.146,0,0,1-1.376-1.433ZM197.43,64.064v.692c-.007.009-.019.021-.028.031a3.385,3.385,0,0,1-1.52.633,11.908,11.908,0,0,1-2.7.281,12.13,12.13,0,0,1-2.721-.281,3.354,3.354,0,0,1-1.531-.621s-.01-.009-.012-.011h.012V62.345a13.119,13.119,0,0,0,4.288.887,12.977,12.977,0,0,0,4.216-.871Zm5.986-14.846a27.686,27.686,0,0,1-.926,5.009,10.554,10.554,0,0,1-3.642,5.751,8.085,8.085,0,0,1-.7.464c-.234.138-.462.283-.714.4a11.258,11.258,0,0,1-4.216.961,12.906,12.906,0,0,1-2.573-.392,9.732,9.732,0,0,1-1.678-.571,8.431,8.431,0,0,1-1.045-.581,10.278,10.278,0,0,1-4.049-6.038,27.6,27.6,0,0,1-.929-5.006c-.09-.881-.164-1.79-.21-2.749a11.044,11.044,0,0,1,.663-2.7,9.256,9.256,0,0,0,2.131-.674.9.9,0,0,0,.73.311,14.067,14.067,0,0,0,3.892-.847.906.906,0,0,0,.883.847,8,8,0,0,0,5.592-2.248,14.242,14.242,0,0,0,6.242,6.942l.586.808c-.01.108-.023.211-.034.317Zm.224-11.781H182a.177.177,0,0,1-.044-.012.248.248,0,0,1-.035-.009.264.264,0,0,1-.106-.069.235.235,0,0,1-.047-.2l.558-2.508.033-.146a.228.228,0,0,1,.118-.146.217.217,0,0,1,.074-.026c.015,0,.025-.015.041-.015h21.175a.286.286,0,0,1,.233.187l.1.432.494,2.221a.234.234,0,0,1-.047.2.257.257,0,0,1-.142.078.186.186,0,0,1-.044.012h-.716Zm1.841,14.7a2.143,2.143,0,0,1-1.371,1.431,29.814,29.814,0,0,0,.643-3.525.837.837,0,0,1,.311-.084.474.474,0,0,1,.172.031c.275.108.382.484.416.641a2.728,2.728,0,0,1-.171,1.505Zm-13.826,1.685V52.033a.715.715,0,1,1,1.43,0V53.6h.9a.715.715,0,1,1,0,1.43h-1.123a1.21,1.21,0,0,1-1.208-1.208Zm-2.963-4.094a1.24,1.24,0,1,1-1.24-1.24A1.24,1.24,0,0,1,188.692,49.724Zm11.452,0a1.24,1.24,0,1,1-1.24-1.24A1.24,1.24,0,0,1,200.144,49.724Zm-10.93-18.192a.7.7,0,0,1-.2-.557l.032-.331.329-3.4a.715.715,0,0,1,1.424.138l-.3,3.14-.057.593a.69.69,0,0,1-.122.319.708.708,0,0,1-.589.328.614.614,0,0,1-.07,0,.7.7,0,0,1-.444-.225Zm6.644-1.054-.3-3.1a.715.715,0,1,1,1.423-.138l.33,3.412.031.322a.743.743,0,0,1-.643.781c-.023,0-.047,0-.07,0a.735.735,0,0,1-.711-.647Zm28.019,49.177L207.189,65.233a4.259,4.259,0,0,0-3.523-.964l0,.011-1.654,10.306,1.671,10.734h-21l1.67-10.735L182.693,64.28l0-.012a4.264,4.264,0,0,0-3.523.965L162.479,79.655a4.291,4.291,0,0,0-.587,5.874l4.549,5.877a5.157,5.157,0,0,0,.313,1.285.728.728,0,0,0,.111.19l4.113,5.035-1.728,6.164a3.027,3.027,0,0,0,.369,2.492,1.416,1.416,0,0,0,1.137.6H215.6a1.418,1.418,0,0,0,1.137-.6,3.024,3.024,0,0,0,.368-2.49l-1.728-6.164,4.113-5.035a.727.727,0,0,0,.111-.19,5.14,5.14,0,0,0,.313-1.286l4.549-5.877a4.287,4.287,0,0,0-.587-5.871Zm-18.435-4.59,9.747,8.424-2.236,2.887a6.327,6.327,0,0,0-.789.152,1.594,1.594,0,0,0-1.438-1.207h-5.284Zm-24.528,0V85.322h-5.284a1.6,1.6,0,0,0-1.437,1.207,6.384,6.384,0,0,0-.791-.152l-2.234-2.886ZM168.972,93.2l-.927-1.134a3.338,3.338,0,0,1-.112-2.051,1.745,1.745,0,0,1,.99-1.2l1.817-.716a4.962,4.962,0,0,1,1.692-.347,4.819,4.819,0,0,1,1.353.152c.027.007.056.009.083.016l.343.092.5.133.921.246,1.949.521a1.141,1.141,0,0,1,.689.887,1.887,1.887,0,0,1,.053.521.8.8,0,0,1-.266.621.445.445,0,0,1-.384.057l-.51-.14-2.063-.569-.887-.245-.033-.009-.206-.057a.714.714,0,0,0-.388,1.374l-1.6,5.537Zm9.925-1.1a2.177,2.177,0,0,0,.833-1.593,5.385,5.385,0,0,1,1.215-.623,3.459,3.459,0,0,1,1.052-.2c.023,0,.047,0,.069,0a2.553,2.553,0,0,1,.666.086,2.357,2.357,0,0,1,.255.1,2.55,2.55,0,0,1,1.328,1.281,4.641,4.641,0,0,1,.409,1.273,9.242,9.242,0,0,1-.629,4.827c-1.394,3.567-4.418,6.086-6.6,5.494a2.494,2.494,0,0,1-1.584-1.383c-.752-1.492-.669-3.829.22-6.1a11.459,11.459,0,0,1,1.581-2.806A1.814,1.814,0,0,0,178.9,92.1Zm36.38,13.168h-44.2a1.4,1.4,0,0,1,.007-.67l3.625-12.93,1.491.412a13.219,13.219,0,0,0-1.4,2.654c-1.047,2.678-1.108,5.395-.164,7.266a3.912,3.912,0,0,0,2.488,2.119,3.958,3.958,0,0,0,1.042.137c2.726,0,5.758-2.63,7.266-6.489a10.72,10.72,0,0,0,.735-5.349,6.254,6.254,0,0,0-.571-1.918,4.645,4.645,0,0,0-.4-.637,3.768,3.768,0,0,0-2.089-1.481,3.941,3.941,0,0,0-.887-.124,4.594,4.594,0,0,0-1.306.141,6.1,6.1,0,0,0-1.416.567,2.422,2.422,0,0,0-1.547-1.431l-1.129-.3h32.712l-1.132.3a2.421,2.421,0,0,0-1.544,1.433,6.1,6.1,0,0,0-1.416-.567,4.6,4.6,0,0,0-1.306-.142,3.941,3.941,0,0,0-.887.124,3.771,3.771,0,0,0-2.089,1.481,4.7,4.7,0,0,0-.4.638,6.267,6.267,0,0,0-.57,1.917,10.713,10.713,0,0,0,.735,5.349c1.509,3.859,4.54,6.489,7.266,6.489a3.955,3.955,0,0,0,1.042-.137A3.913,3.913,0,0,0,211.72,102c.945-1.871.883-4.586-.165-7.266a13.185,13.185,0,0,0-1.4-2.654l1.493-.412,3.625,12.932a1.36,1.36,0,0,1,.009.667Zm-6.634-12.82a11.466,11.466,0,0,1,1.582,2.807c.887,2.272.972,4.609.22,6.1a2.5,2.5,0,0,1-1.584,1.383c-2.192.587-5.21-1.926-6.6-5.494a9.241,9.241,0,0,1-.628-4.827,4.636,4.636,0,0,1,.409-1.272,2.545,2.545,0,0,1,1.328-1.282,2.227,2.227,0,0,1,.255-.1,2.553,2.553,0,0,1,.666-.086c.023,0,.047,0,.07,0a3.44,3.44,0,0,1,1.052.2,5.342,5.342,0,0,1,1.215.623,2.168,2.168,0,0,0,.834,1.592,1.805,1.805,0,0,0,1.185.349Zm9.666-.378-.927,1.134-3.012,3.688-1.6-5.538a.714.714,0,0,0-.388-1.374l-.206.057-.033.009-.886.245-2.065.569-.506.14a.43.43,0,0,1-.387-.056.8.8,0,0,1-.267-.627,1.845,1.845,0,0,1,.053-.515,1.143,1.143,0,0,1,.687-.887l1.952-.522.921-.246.5-.133.343-.092c.027-.007.056-.009.083-.016a4.891,4.891,0,0,1,1.353-.152,4.957,4.957,0,0,1,1.692.347l1.815.714a1.75,1.75,0,0,1,.991,1.2,3.346,3.346,0,0,1-.113,2.051ZM196.374,57.742c0,1.086-1.65,1.473-3.195,1.473s-3.195-.387-3.195-1.473a.715.715,0,0,1,1.386-.249,5.764,5.764,0,0,0,3.619,0,.715.715,0,0,1,1.386.249Zm.4,32.119a4.38,4.38,0,0,0-7.187,0,8.321,8.321,0,0,0-1.388,2.554,11.684,11.684,0,0,0-.623,3.833c0,4.633,2.462,8.262,5.6,8.262s5.6-3.629,5.6-8.262a11.7,11.7,0,0,0-.623-3.833,8.336,8.336,0,0,0-1.388-2.554Zm-3.593,13.218c-2.262,0-4.174-3.128-4.174-6.831a9.913,9.913,0,0,1,.744-3.833,5.481,5.481,0,0,1,1.989-2.554,2.555,2.555,0,0,1,2.882,0,5.485,5.485,0,0,1,1.989,2.554,9.915,9.915,0,0,1,.744,3.833C197.353,99.952,195.44,103.079,193.179,103.079Zm-2.268-8.628a.715.715,0,0,1,.32-.959l3.255-1.626a.713.713,0,0,1,.959.321.694.694,0,0,1,.063.229.709.709,0,0,1-.382.73l-3.254,1.627a.716.716,0,0,1-.96-.321Zm4.534.663a.714.714,0,0,1-.321.959L191.87,97.7a.715.715,0,0,1-.639-1.28l3.255-1.627a.715.715,0,0,1,.959.321Zm0,2.929a.714.714,0,0,1-.321.959l-3.254,1.627a.715.715,0,0,1-.639-1.28l3.255-1.627a.715.715,0,0,1,.959.321ZM178.6,93.776a.715.715,0,0,1,.567-.837l3.649-.7.322-.062a.747.747,0,0,1,.837.567.715.715,0,0,1-.567.837l-3.97.764a.675.675,0,0,1-.136.013.716.716,0,0,1-.7-.581Zm-.6,2.152,3.97-.764a.715.715,0,0,1,.27,1.4l-3.97.764a.675.675,0,0,1-.136.013.716.716,0,0,1-.134-1.418Zm3.639,2.792a.715.715,0,0,1-.567.837l-3.97.764a.675.675,0,0,1-.136.013.715.715,0,0,1-.134-1.417l3.97-.764a.711.711,0,0,1,.837.567Zm21.912-6.483,3.648.7a.715.715,0,0,1-.134,1.418.675.675,0,0,1-.136-.013l-3.97-.764a.715.715,0,0,1-.567-.837.7.7,0,0,1,.17-.327.694.694,0,0,1,.667-.241Zm.845,2.927,3.971.764a.715.715,0,0,1-.134,1.417.676.676,0,0,1-.136-.013l-3.971-.764a.715.715,0,1,1,.269-1.4Zm1.169,2.989,3.971.764a.715.715,0,0,1-.134,1.417.676.676,0,0,1-.136-.013l-3.971-.764a.715.715,0,1,1,.269-1.4Z" transform="translate(-45.553)" fill="#fff"/></g></svg>