<svg xmlns="http://www.w3.org/2000/svg" width="35.86" height="49.489" viewBox="0 0 35.86 49.489"><path d="M167.556,18.245c0-5.342-6.2-2.585-6.031-.172,1.378.172,2.068,1.206,3.619,1.378.862.172,1.723-.689,2.412-1.206Zm-3.619-5V8.94c-8.443-7.927-3.619-11.717.862-7.754,4.48-3.963,9.305-.172.862,7.754v4.135a3.926,3.926,0,0,1,3.791,3.791c2.757-.862,4.825,1.551,4.308,4.135a3.594,3.594,0,0,1,3.274,4.653c3.619.517,5,5.342,3.1,8.271a4.354,4.354,0,0,1,2.585,3.963c-.345,3.963-.517,4.135-.862,9.477-.172,1.206-2.068,1.723-3.1,1.723H150.67c-.862,0-2.929-.517-2.929-1.723-.345-3.791-.517-6.031-.862-9.477a3.948,3.948,0,0,1,2.412-3.963c-1.034-3.1-1.378-7.754,2.585-8.788-.689-3.963,3.274-8.96,6.376-6.2a2.906,2.906,0,0,0,1.034-.517c-.172-2.585,2.068-4.653,4.653-5.169ZM181,37.889a2.341,2.341,0,1,0-4.653-.517c-.345,3.446-.517,6.376-.862,9.994h3.274a1.856,1.856,0,0,0,1.378-.345c.345-3.619.517-5.858.862-9.132Zm-5.342,0A2.341,2.341,0,0,0,171,37.371c-.345,3.619-.517,6.031-.862,9.994h4.653c.345-3.619.517-6.2.862-9.477Zm-5.859-.345a2.281,2.281,0,0,0-2.24-2.24,2.322,2.322,0,0,0-2.412,2.24,69.425,69.425,0,0,0,.517,9.822h3.791a65.964,65.964,0,0,0,.345-9.822Zm-5.686-.172a2.443,2.443,0,0,0-2.585-2.068,2.227,2.227,0,0,0-2.068,2.585c.172,3.274.517,5.858.689,9.477h4.825c-.345-3.791-.689-6.548-.862-9.994Zm-5.514,0a2.245,2.245,0,0,0-2.585-2.068,2.338,2.338,0,0,0-2.068,2.585c.345,3.274.517,5.858.862,9.477h4.653c-.345-3.963-.517-6.376-.862-9.994Zm-5.342,0a2.443,2.443,0,0,0-2.585-2.068,2.338,2.338,0,0,0-2.068,2.585c.172,3.274.345,5,.689,9.132a2.317,2.317,0,0,0,1.378.345h3.446c-.345-3.791-.689-6.376-.862-9.994Zm5.858-16.887c1.723,2.929,4.135,4.135,4.825,4.135a11.142,11.142,0,0,0,6.2-2.068c2.412-1.723,2.585-3.963.517-4.135-1.378-.172-3.446,2.412-5.342,2.585-1.9.345-2.929-1.206-4.135-1.206a2.913,2.913,0,0,0-2.068.689Zm6.2,11.545c-6.2.345-9.132-6.376-13.1-4.825-2.585.862-1.378,4.653-.862,6.376a4.118,4.118,0,0,1,2.24,1.206,3.648,3.648,0,0,1,5.342,0,3.906,3.906,0,0,1,5.686.172,3.966,3.966,0,0,1,5.858,0A3.858,3.858,0,0,1,176,34.615c.517-.172.689-.517,1.378-.689,2.585-2.068,1.551-6.2-.862-6.2-3.446.172-7.065,3.963-11.2,4.308Zm-11.373-7.237c3.963.345,6.548,5.342,11.2,5.169,2.929-.345,6.548-2.929,9.65-3.963.689-1.9,0-2.929-2.068-2.929-2.24,0-3.791,3.1-8.443,3.274-5.169,0-6.72-6.2-8.1-6.031-1.723.172-2.585,3.1-2.24,4.48Z" transform="translate(-146.86 0.4)" fill="#ff4779"/></svg>