<svg xmlns="http://www.w3.org/2000/svg" width="44.513" height="44.513" viewBox="0 0 44.513 44.513"><path d="M138.47,63.1h-1.535V52.737A2,2,0,0,0,137.7,51.2a1.9,1.9,0,0,0-1.919-1.919H130.8V39.23a1.9,1.9,0,0,0-.384-3.761h-8.825a3.946,3.946,0,0,0,.767-2.3,3.86,3.86,0,0,0-3.07-3.761.738.738,0,0,1,.691-.614,2.143,2.143,0,0,0,1.535-.614l.614-.614a.76.76,0,0,0-1.074-1.074l-.614.614a.663.663,0,0,1-.46.23,2.211,2.211,0,0,0-2.226,2.149,3.86,3.86,0,0,0-3.07,3.761,3.946,3.946,0,0,0,.767,2.3h-8.825a1.9,1.9,0,0,0-.384,3.761v9.977h-4.989A1.9,1.9,0,0,0,99.33,51.2a2,2,0,0,0,.767,1.535V63.1H98.562a2.3,2.3,0,0,0,0,4.6h.46l3.607,2.916a1.091,1.091,0,0,0,.46.153h30.7a1.091,1.091,0,0,0,.46-.153l3.607-2.916h.614a2.3,2.3,0,0,0,0-4.6ZM116.213,33.166a2.3,2.3,0,1,1,2.3,2.3A2.261,2.261,0,0,1,116.213,33.166Zm-8.442,6.524a2,2,0,0,1,.767,1.535v.767a1.9,1.9,0,0,0,1.919,1.919.363.363,0,0,1,.384.384v.384a2.3,2.3,0,0,0,4.6,0V43.527a.384.384,0,0,1,.767,0v1.919a2.3,2.3,0,0,0,4.6,0V43.527a.384.384,0,1,1,.767,0v1.151a2.3,2.3,0,0,0,4.6,0v-.384a.363.363,0,0,1,.384-.384,1.9,1.9,0,0,0,1.919-1.919v-.767a2,2,0,0,1,.767-1.535v9.594H107.771Zm-6.14,13.43h.384a.363.363,0,0,1,.384.384v.767a1.9,1.9,0,0,0,1.919,1.919.363.363,0,0,1,.384.384v.767a1.9,1.9,0,0,0,1.919,1.919h.767a1.9,1.9,0,0,0,1.919-1.919.384.384,0,1,1,.767,0v3.07a1.9,1.9,0,0,0,1.919,1.919h.767a1.9,1.9,0,0,0,1.919-1.919V58.876a.384.384,0,1,1,.767,0,2.207,2.207,0,0,0,.537,1.381,1.6,1.6,0,0,0,1.381.537,1.9,1.9,0,0,0,1.919-1.919v-2.3c0-.153.077-.23.077-.307.077-.077.153-.077.307-.077a.363.363,0,0,1,.384.384v3.837a1.9,1.9,0,0,0,1.919,1.919h.767a1.9,1.9,0,0,0,1.919-1.919v-2.3a.384.384,0,1,1,.767,0v.767a1.9,1.9,0,0,0,1.919,1.919h.767a1.9,1.9,0,0,0,1.919-1.919v-2.3a.384.384,0,1,1,.767,0,1.919,1.919,0,1,0,3.837,0V53.5a.363.363,0,0,1,.384-.384h.384V63.1H101.631ZM138.47,66.167H98.562a.767.767,0,1,1,0-1.535H138.47a.767.767,0,0,1,0,1.535Z" transform="translate(-96.26 -26.26)" fill="#ff4779"/></svg>