<svg xmlns="http://www.w3.org/2000/svg" width="69.235" height="69.247" viewBox="0 0 69.235 69.247"><g transform="translate(-108.775 -79.11)"><path d="M218.345,113.728a34.618,34.618,0,1,0-51.521,30.2v.02l.772.417c.193.1.386.183.569.285.315.152.62.315.934.457l.732.335c.407.183.812.345,1.229.508.162.061.325.132.487.193a34.627,34.627,0,0,0,3.85,1.2h.05c.62.162,1.249.295,1.879.417.1.02.213.04.315.061.538.092,1.087.183,1.636.254.142.02.295.04.437.05.518.061,1.036.112,1.564.142.152.01.3.03.457.03q.99.061,1.981.061c.66,0,1.331-.02,1.981-.061.152,0,.3-.02.457-.03.528-.04,1.046-.081,1.564-.142.142-.02.295-.04.437-.05.549-.071,1.1-.152,1.636-.254.1-.02.213-.04.315-.061.63-.122,1.259-.254,1.879-.407h.05a37.657,37.657,0,0,0,3.85-1.209c.162-.061.315-.122.477-.193.417-.162.833-.335,1.239-.518.244-.1.477-.213.721-.325.315-.152.63-.3.944-.467.183-.092.376-.183.569-.274l.782-.417v-.02a34.636,34.636,0,0,0,17.706-30.2Zm-20.286,29.6c-.437.213-.874.407-1.311.6-.071.03-.142.071-.223.1-.559.234-1.117.457-1.686.66-.071.03-.152.05-.234.081-.5.173-1.006.345-1.513.487-.092.03-.173.05-.264.071-.5.142-1.006.274-1.513.4l-.285.061c-.5.112-1.006.213-1.513.3a2.933,2.933,0,0,1-.315.05c-.487.081-.985.152-1.483.213-.122.01-.234.03-.355.04q-.731.076-1.463.122c-.122,0-.254.02-.376.03-.6.03-1.209.05-1.818.05s-1.209-.02-1.818-.05c-.122,0-.254-.02-.376-.03q-.731-.045-1.463-.122c-.122-.01-.234-.03-.355-.04-.5-.061-.985-.132-1.483-.213-.1-.02-.213-.04-.315-.061-.508-.092-1.006-.193-1.5-.3a2.753,2.753,0,0,1-.285-.071c-.508-.122-1.006-.254-1.5-.4-.092-.03-.183-.05-.274-.081-.508-.152-1.006-.315-1.5-.487-.081-.03-.162-.05-.244-.081-.569-.2-1.128-.417-1.676-.65l-.274-.122c-.427-.183-.843-.376-1.259-.579l-.183-.092a17.149,17.149,0,0,1,9.66-7.344l.376.244a8.069,8.069,0,0,0,8.939,0l.376-.244a17.165,17.165,0,0,1,9.66,7.344l-.183.092Zm-14.333-13.256A14.08,14.08,0,0,1,169.658,116v-7.03a14.058,14.058,0,0,1,.213-2.367,2.712,2.712,0,0,1,.6-.894,2.762,2.762,0,0,1,2.418-.772h.05a4.682,4.682,0,0,0,.843.092,4.972,4.972,0,0,0,4.977-4.977,4.977,4.977,0,1,0,9.954,0,4.972,4.972,0,0,0,4.977,4.977,4.756,4.756,0,0,0,.864-.081h.02a2.792,2.792,0,0,1,2.418.772,2.878,2.878,0,0,1,.6.894,13.963,13.963,0,0,1,.213,2.367v7.03a14.08,14.08,0,0,1-14.068,14.068Zm3.129,1.391v3.464a6.359,6.359,0,0,1-6.257,0v-3.464a15.694,15.694,0,0,0,6.257,0Zm12.911,10.971a18.882,18.882,0,0,0-11.174-8.339v-3.088A15.8,15.8,0,0,0,199.461,117a4.574,4.574,0,0,0,1.128-8.654,4.953,4.953,0,0,0-4.053-8.685,4.945,4.945,0,0,0-7.842-5.953,4.959,4.959,0,0,0-9.914,0,4.945,4.945,0,0,0-7.842,5.953,4.953,4.953,0,0,0-4.053,8.685A4.574,4.574,0,0,0,168.012,117a15.788,15.788,0,0,0,10.869,14.008v3.088a18.852,18.852,0,0,0-11.174,8.339,32.891,32.891,0,1,1,32.078,0Zm-.254-27.213v-5.465a2.857,2.857,0,0,1,0,5.464Zm-31.561-5.465v5.465a2.857,2.857,0,0,1,0-5.464Z" transform="translate(-40.335)" fill="#ff4779"/><path d="M314.732,266.051a1.259,1.259,0,1,0-1.259,1.259A1.259,1.259,0,0,0,314.732,266.051Z" transform="translate(-175.332 -153.685)" fill="#ff4779"/><path d="M374.431,264.79a1.259,1.259,0,1,0,1.259,1.259A1.259,1.259,0,0,0,374.431,264.79Z" transform="translate(-225.786 -153.683)" fill="#ff4779"/><path d="M301.478,246.952a.856.856,0,1,0,.437-1.655,3.207,3.207,0,0,0-3.891,2.194.851.851,0,0,0,.589,1.056.989.989,0,0,0,.234.03.856.856,0,0,0,.823-.62,1.482,1.482,0,0,1,1.808-1.016Z" transform="translate(-163.56 -137.46)" fill="#ff4779"/><path d="M337.086,290.408a1.48,1.48,0,0,1,2.072.02.87.87,0,0,0,.609.254.858.858,0,0,0,.609-1.463,3.208,3.208,0,0,0-4.47-.04.862.862,0,0,0-.02,1.209.853.853,0,0,0,1.209.02Z" transform="translate(-194.73 -173.135)" fill="#ff4779"/><path d="M376.114,245.342a.856.856,0,0,0,.437,1.655,1.486,1.486,0,0,1,1.808,1.016.857.857,0,0,0,.823.62.871.871,0,0,0,.234-.03.855.855,0,0,0,.589-1.056,3.2,3.2,0,0,0-3.891-2.194Z" transform="translate(-227.693 -137.506)" fill="#ff4779"/><path d="M329.012,324.968a4.736,4.736,0,0,1-.772.6,5.289,5.289,0,0,1-5.831-.061,6.149,6.149,0,0,1-.762-.62.855.855,0,0,0-1.209,1.209,6.952,6.952,0,0,0,4.927,2.031,6.857,6.857,0,0,0,4.825-1.93.862.862,0,0,0,.02-1.209.853.853,0,0,0-1.209-.02Z" transform="translate(-181.932 -203.215)" fill="#ff4779"/></g></svg>