<svg xmlns="http://www.w3.org/2000/svg" width="405.66" height="200.431" viewBox="0 0 405.66 200.431"><g transform="translate(-4.184 0)"><path d="M324.425,482.417c-1.566,12.268-7.323,23.492-13.465,34.3-.2.368-.412.731-.626,1.1H246.5c-1.291-.335-2.566-.7-3.835-1.1A69.784,69.784,0,0,1,222.5,506.8c-23.486-16.921-32.523-48.895-28.441-77.545,2.538-17.8,10.35-35.973,25.563-45.56a38.379,38.379,0,0,1,27.6-4.835c.242.044.484.1.731.148,7.955,1.791,15.042,6.241,19.075,13.41,7.252,12.883,2.934,28.842-.632,43.181s-5.483,31.5,4.834,42.077a26.32,26.32,0,0,1,30.606-34.21c.747.159,1.483.341,2.209.56a24.5,24.5,0,0,1,5.038,2.11C321.25,452.938,326.178,468.589,324.425,482.417Z" transform="translate(-188.932 -317.389)" fill="#f2f2f2"/><path d="M315.718,517.326c1.769.412,3.543.775,5.329,1.1h-9.652c-1.264-.341-2.522-.7-3.769-1.1q-4.112-1.285-8.1-2.95a72.649,72.649,0,0,1-27.9-20.118,56.792,56.792,0,0,1-8.8-14.377,65.3,65.3,0,0,1-4.5-18.4c-1.346-12.965.027-26.288,2.593-39.023a162.865,162.865,0,0,1,12.724-38.165q1.047-2.184,2.165-4.34a.847.847,0,0,1,.566-.483.976.976,0,0,1,.731.148,1.157,1.157,0,0,1,.456,1.527,160.989,160.989,0,0,0-13.5,36.786,141.6,141.6,0,0,0-4.016,38.292c.538,11.966,3.665,23.733,10.757,33.518a67.623,67.623,0,0,0,25.316,20.772,92.918,92.918,0,0,0,19.613,6.812Z" transform="translate(-218.077 -317.994)" fill="#fff"/><path d="M387.421,571.432h-2.846c-.319-.363-.626-.731-.928-1.1a60.658,60.658,0,0,1-12.768-27.282,59.187,59.187,0,0,1,5.1-36.836,60.566,60.566,0,0,1,5.516-9.131c.747.159,1.483.341,2.208.56a57.253,57.253,0,0,0,2.731,72.689C386.756,570.7,387.086,571.07,387.421,571.432Z" transform="translate(-268.595 -371.002)" fill="#fff"/><path d="M868.355,592.826a25.169,25.169,0,0,0,3.554,9.053c.054.1.109.193.165.29h16.848c.341-.089.677-.186,1.012-.29a18.418,18.418,0,0,0,5.32-2.617c6.2-4.466,8.584-12.9,7.506-20.466-.67-4.7-2.732-9.494-6.746-12.024a10.129,10.129,0,0,0-7.283-1.276c-.064.012-.128.026-.193.039a7.515,7.515,0,0,0-5.034,3.539c-1.914,3.4-.774,7.612.167,11.4s1.447,8.314-1.276,11.1a6.946,6.946,0,0,0-8.078-9.029c-.2.042-.391.09-.583.148a6.467,6.467,0,0,0-1.33.557C869.193,585.045,867.892,589.176,868.355,592.826Z" transform="translate(-493.166 -401.739)" fill="#f2f2f2"/><path d="M885.459,602.041c-.467.109-.935.2-1.406.29H886.6c.334-.09.666-.186.995-.29q1.085-.339,2.137-.779a19.173,19.173,0,0,0,7.364-5.31,14.988,14.988,0,0,0,2.323-3.794,17.235,17.235,0,0,0,1.189-4.856,34.535,34.535,0,0,0-.684-10.3,42.979,42.979,0,0,0-3.358-10.073q-.276-.576-.571-1.145a.223.223,0,0,0-.149-.128.257.257,0,0,0-.193.039.305.305,0,0,0-.12.4,42.491,42.491,0,0,1,3.564,9.709,37.374,37.374,0,0,1,1.06,10.106,16.125,16.125,0,0,1-2.839,8.846,17.847,17.847,0,0,1-6.681,5.482,24.516,24.516,0,0,1-5.176,1.8Z" transform="translate(-500.281 -401.901)" fill="#fff"/><path d="M876.437,616.321h.751c.084-.1.165-.193.245-.29a16.008,16.008,0,0,0,3.37-7.2,15.621,15.621,0,0,0-1.347-9.722A15.979,15.979,0,0,0,878,596.7c-.2.042-.392.09-.583.148a15.11,15.11,0,0,1-.721,19.184Q876.57,616.176,876.437,616.321Z" transform="translate(-496.849 -415.89)" fill="#fff"/><path d="M548.3,462.666h-52.73l-.559-16.213a4.867,4.867,0,0,1,5.456-5l30.685,3.757h0A17.19,17.19,0,0,1,548.3,462.391Z" transform="translate(-324.969 -345.918)" fill="#6c63ff"/><path d="M516.011,375.414H479.234a3.723,3.723,0,0,0-3.724,3.724v36.777a3.723,3.723,0,0,0,3.724,3.724h36.777a3.723,3.723,0,0,0,3.724-3.724V379.138A3.723,3.723,0,0,0,516.011,375.414Z" transform="translate(-316.184 -316.175)" fill="#ccc"/><path d="M514.951,413.418,497.587,416.8a3.961,3.961,0,0,1-4.64-3.128l-1.335-6.854a3.961,3.961,0,0,1,3.128-4.64L512.1,398.8a3.961,3.961,0,0,1,4.64,3.128l1.335,6.854A3.961,3.961,0,0,1,514.951,413.418Z" transform="translate(-323.407 -326.678)" fill="#3f3d56"/><path d="M516.052,409.219,502.8,411.8a.931.931,0,1,1-.356-1.828l13.251-2.581a.931.931,0,1,1,.356,1.828Z" transform="translate(-327.982 -330.577)" fill="#fff"/><path d="M516.611,416.175l-6.854,1.335a.931.931,0,0,1-.356-1.828l6.854-1.335a.931.931,0,1,1,.356,1.828Z" transform="translate(-331.117 -333.711)" fill="#fff"/><path d="M519.735,379.138v4.888H475.51v-4.888a3.723,3.723,0,0,1,3.724-3.724h36.777A3.723,3.723,0,0,1,519.735,379.138Z" transform="translate(-316.184 -316.175)" fill="#b3b3b3"/><path d="M666.585,376.119a5.9,5.9,0,0,0-8.347-3.5l-50.6-18.153-2.228,12.64,50.435,13.869a5.934,5.934,0,0,0,10.736-4.859Z" transform="translate(-374.721 -306.737)" fill="#ffb8b8"/><path d="M666.585,376.119a5.9,5.9,0,0,0-8.347-3.5l-50.6-18.153-2.228,12.64,50.435,13.869a5.934,5.934,0,0,0,10.736-4.859Z" transform="translate(-374.721 -306.737)" opacity="0.2"/><path d="M605.424,353l-4.778,12.482a2.646,2.646,0,0,1-3.769,1.36l-11.612-6.536A7.349,7.349,0,1,1,590.56,346.6l12.967,2.876a2.646,2.646,0,0,1,1.9,3.529Z" transform="translate(-363.522 -302.966)" fill="#ff4779"/><path d="M709.14,414.914l-18.13,8.241,2.38,8.961a139.4,139.4,0,0,1,3.593,53.1h0l13.255,2.768,10.988-28.018L717.38,428.1Z" transform="translate(-413.292 -333.975)" fill="#ff4779"/><path d="M770.641,490.414c-11.912,0-21.619,8.659-22.09,19.5h44.18C792.26,499.073,782.553,490.414,770.641,490.414Z" transform="translate(-439.221 -367.996)" fill="#3f3d56"/><path d="M623.128,457.271c-.62-48.949-28.5-44.446-28.5-44.446s.521,15.236.772,15.71c17.764,33.611-11.554,73.015-48.873,65.766q-1.055-.2-2.028-.416a19,19,0,0,1-14.923-21.3c3.676-29.521-14.608-29-14.608-29H488.234l-13.885-12.5a4.036,4.036,0,0,0-6.487,1.6l-1.786,4.848s-26.37,2.747-24.173,28.568h8.153a16.463,16.463,0,0,0,.088,2.2l60.844-.495a6.66,6.66,0,0,1,6.729,6.428,6.457,6.457,0,0,1-6.672,6.48l-9.809-.327c-3.022,13.46,4.4,22.525,12.567,28.224a45.681,45.681,0,0,0,26.16,8.035h26.649c34.611,0,40.654-29.117,40.654-29.117C625.4,479.849,623.128,457.271,623.128,457.271Z" transform="translate(-300.981 -332.984)" fill="#3f3d56"/><circle cx="30.903" cy="30.903" r="30.903" transform="translate(298.869 137.801)" fill="#3f3d56"/><circle cx="7.574" cy="7.574" r="7.574" transform="translate(322.197 161.129)" fill="#fff"/><circle cx="35.572" cy="35.572" r="35.572" transform="translate(138.175 128.461)" fill="#3f3d56"/><circle cx="8.719" cy="8.719" r="8.719" transform="translate(165.029 155.315)" fill="#fff"/><path d="M685.373,405.608,678.85,387.89a7.493,7.493,0,0,1,4.443-9.62l18.7-6.884a13.184,13.184,0,1,1,9.112,24.743Z" transform="translate(-407.604 -313.992)" fill="#3f3d56"/><path d="M739.118,383.986a12.938,12.938,0,0,1-4.835,10.076,16.475,16.475,0,0,1-10.823-22.689,12.913,12.913,0,0,1,15.657,12.614Z" transform="translate(-427.261 -314.221)" fill="#ff4779"/><ellipse cx="7.691" cy="9.339" rx="7.691" ry="9.339" transform="translate(137.9 118.023)" fill="#6c63ff"/><path d="M450.07,277.677h6.735l3.2-17.469h-9.941Z" transform="translate(-202.81 -117.255)" fill="#ffb8b8"/><path d="M632.444,555.588h13.265a8.453,8.453,0,0,1,8.453,8.453v.274H632.444Z" transform="translate(-386.901 -397.364)" fill="#2f2e41"/><path d="M612.474,494.371q-.118,0-.236-.011l-9.321-.679a2.472,2.472,0,0,1-2.093-3.312L613.3,462.342a1.922,1.922,0,0,0-.108-1.538,1.9,1.9,0,0,0-1.215-.967c-5.866-1.533-20.916-5.616-33.944-10.393-5.582-2.047-9.1-5-10.449-8.791a12.408,12.408,0,0,1,.967-9.736l.088-.15,12.259,1.114,13.29,1.13,29.125,15.618a11.035,11.035,0,0,1,4.845,14.165l-13.427,30.11A2.471,2.471,0,0,1,612.474,494.371Z" transform="translate(-357.396 -341.118)" fill="#2f2e41"/><circle cx="13.493" cy="13.493" r="13.493" transform="translate(212.14 8.328)" fill="#ffb8b8"/><path d="M443.07,280.677h6.735l3.2-17.469h-9.941Z" transform="translate(-199.655 -118.607)" fill="#ffb8b8"/><path d="M625.444,558.588h13.265a8.453,8.453,0,0,1,8.453,8.453v.274H625.444Z" transform="translate(-383.747 -398.716)" fill="#2f2e41"/><path d="M605.474,497.371q-.118,0-.236-.011l-9.321-.679a2.472,2.472,0,0,1-2.093-3.312L606.3,465.342a1.922,1.922,0,0,0-.108-1.538,1.9,1.9,0,0,0-1.215-.967c-5.866-1.533-20.916-5.616-33.944-10.393-5.582-2.047-9.1-5-10.449-8.791a12.408,12.408,0,0,1,.967-9.736l.088-.15,12.259,1.114,13.29,1.13,29.125,15.618a11.035,11.035,0,0,1,4.845,14.165l-13.427,30.11a2.47,2.47,0,0,1-2.256,1.465Z" transform="translate(-354.242 -342.47)" fill="#2f2e41"/><path d="M585.53,341.738l-14.284-4.944s-8.967,6.889-4.659,23.98a42.309,42.309,0,0,1-1.868,26.546,27.351,27.351,0,0,1-1.439,3.039s15.932,19.228,30.765,4.944l-5.768-27.744S597.342,349.155,585.53,341.738Z" transform="translate(-355.735 -298.772)" fill="#ff4779"/><path d="M581.555,303.359c-1.92-2.875-3.436-6.86-1.322-9.6,2.087-2.7,6.2-2.3,9.4-3.5,4.452-1.664,7.034-6.894,6.229-11.579s-4.565-8.567-9.045-10.156a19.583,19.583,0,0,0-13.917.758,21.253,21.253,0,0,0-11.975,12.128c-1.942,5.519-.9,12.146,3.126,16.388,4.32,4.548,11.1,5.76,17.373,5.686" transform="translate(-354.246 -267.585)" fill="#2f2e41"/><path d="M525.217,282.038c-2.42,1.97-6.112,1.1-8.71-.634s-4.706-4.191-7.516-5.546c-4.955-2.39-10.946-.8-15.768,1.846s-9.1,6.3-14.191,8.381-11.594,2.18-15.451-1.742A14.137,14.137,0,0,0,484.3,301.028c5.581-3.4,8.664-10.528,14.924-12.4,3.464-1.038,7.184-.2,10.685.7s7.152,1.885,10.685,1.113,6.838-3.946,6.389-7.535Z" transform="translate(-310.459 -270.785)" fill="#2f2e41"/><path d="M664.835,381.22a5.9,5.9,0,0,0-8.714-2.44l-52.449-11.772-.652,12.818,51.761,7.541a5.934,5.934,0,0,0,10.055-6.147Z" transform="translate(-373.642 -312.387)" fill="#ffb8b8"/><path d="M600.707,365.261l-3.2,12.976a2.646,2.646,0,0,1-3.573,1.815L581.6,375a7.349,7.349,0,1,1,3.562-14.26l13.222,1.254a2.646,2.646,0,0,1,2.319,3.268Z" transform="translate(-361.482 -309.462)" fill="#ff4779"/><circle cx="3.846" cy="3.846" r="3.846" transform="translate(281.289 71.326)" fill="#6c63ff"/></g></svg>