<svg xmlns="http://www.w3.org/2000/svg" width="361.236" height="288.057" viewBox="0 0 361.236 288.057"><g transform="translate(0)"><path d="M592.692,154.857q-6.761,4.364-13.577,8.375c-.329.195-.658.389-.987.579q-8.477,4.961-17.023,9.357c-.282.148-.565.292-.848.435Q546,180.9,531.64,186.616c-.324.13-.649.259-.973.384q-8.887,3.5-17.783,6.383c-.32.1-.644.208-.964.306-.366.12-.732.236-1.1.352a285.889,285.889,0,0,1-30.466,7.805l-1.13.222q-10.5,2.029-21.062,3.243c-.32.042-.635.079-.954.111a271.347,271.347,0,0,1-30.137,1.682,291.785,291.785,0,0,1-72.267-9.348c-.347-.088-.695-.176-1.042-.273q-6.143-1.584-12.289-3.442-3.856-1.167-7.736-2.441c-.31-.1-.621-.2-.931-.31q-16.5-5.468-33.217-12.878c-.338-.148-.676-.3-1.019-.454q-10.068-4.489-20.182-9.672-.431-.215-.862-.445-11.729-6.031-23.471-12.975l.472-.8q12.153,7.185,24.259,13.373l.023.009q9.769,5,19.506,9.348a365.662,365.662,0,0,0,34.463,13.392c.774.255,1.543.51,2.316.75q9.8,3.168,19.562,5.656c.352.093.7.181,1.051.269q51.133,12.882,101.061,7.444c.32-.028.635-.065.954-.107q9.943-1.1,19.826-2.955c1.135-.213,2.27-.431,3.4-.662a286.024,286.024,0,0,0,30.207-7.768c.32-.1.644-.2.963-.31q9.36-2.981,18.659-6.638c.324-.13.648-.255.973-.384q14-5.552,27.863-12.618c.282-.139.565-.283.848-.435q8.922-4.565,17.778-9.765c.333-.19.663-.384.991-.584q6.5-3.835,12.956-8Z" transform="translate(-233.686 -154.07)" fill="#f2f2f2"/><path d="M319.3,191.7l-19.506-9.348-.023-.009-1.084-.519-.176.917-5.364,27.89,27.427-17.32.9-.57Zm-24.838,17,4.91-25.519v-.009l20.192,9.677-.009,0Z" transform="translate(-254.669 -168.966)" fill="#f2f2f2"/><path d="M445.884,238.456l-.894.885-19.4,19.126-.625-25.009-.023-.982,1.38.324c-.774-.241-1.543-.5-2.316-.75l.028,1.1.686,27.478,21.313-21.012.9-.889C446.583,238.637,446.236,238.549,445.884,238.456Z" transform="translate(-324.912 -195.928)" fill="#f2f2f2"/><path d="M712.456,255.152l2.186-.264-.51,1.084-12.173,25.764-8.889-22.522-.44-1.107c-.32.042-.635.079-.954.107l.44,1.112,9.769,24.741,13.378-28.317.6-1.26C714.726,254.722,713.591,254.939,712.456,255.152Z" transform="translate(-468.592 -207.974)" fill="#f2f2f2"/><path d="M828.718,222.274l-.116,1.13-2.432,24.009-15.351-17.625-.76-.875c-.32.107-.644.208-.963.31l.76.871,17.019,19.543,2.7-26.617.116-1.13C829.367,222.02,829.042,222.145,828.718,222.274Z" transform="translate(-531.621 -190.474)" fill="#f2f2f2"/><path d="M932.332,171.954l-.116,1.144-2.687,25.894-14.336-16.537-.639-.737c-.283.153-.565.3-.848.435l.639.737,15.884,18.325,2.974-28.7.121-1.149C932.995,171.569,932.666,171.764,932.332,171.954Z" transform="translate(-587.774 -163.356)" fill="#f2f2f2"/><path d="M683.7,427.7c-5.685-4.8-9.138-12.392-8.232-19.78s6.514-14.179,13.79-15.747,15.569,2.774,17.779,9.881c1.216-13.7,2.618-27.979,9.9-39.647,6.6-10.566,18.021-18.126,30.4-19.478s25.419,3.756,33.141,13.529,9.613,23.981,4.2,35.2c-3.984,8.266-11.325,14.417-19.016,19.421a122.725,122.725,0,0,1-83.936,18.362Z" transform="translate(-459.816 -255.329)" fill="#f2f2f2"/><path d="M806.856,351.568a202.5,202.5,0,0,0-59.5,80.456c-.568,1.391,1.691,2,2.252.621a200.248,200.248,0,0,1,58.9-79.426c1.166-.949-.5-2.593-1.651-1.651Z" transform="translate(-498.431 -259.932)" fill="#fff"/><path d="M316.117,591.448q-1.737.257-3.483.459a122.8,122.8,0,0,1-80.452-18.821c-7.69-5-15.032-11.154-19.015-19.423-5.411-11.219-3.516-25.426,4.206-35.2a35.124,35.124,0,0,1,10.2-8.7c.584-.338,1.177-.653,1.779-.954a38.277,38.277,0,0,1,21.155-3.877c12.382,1.353,23.809,8.917,30.406,19.478,7.282,11.669,8.685,25.945,9.9,39.647.1-.315.209-.625.329-.926a12.463,12.463,0,0,1,.926-1.862v22.763a6.957,6.957,0,0,0,6.948,6.948h16.569Z" transform="translate(-210.081 -342.296)" fill="#f2f2f2"/><path d="M249.877,513.568a200.8,200.8,0,0,1,27.983,27.787,201.384,201.384,0,0,1,31.518,52.669c.568,1.391-1.691,2-2.252.621a200.247,200.247,0,0,0-58.9-79.426c-1.166-.949.5-2.593,1.651-1.651Z" transform="translate(-230.343 -346.89)" fill="#fff"/><path d="M582.088,558.532H461.882v-13.2a4.4,4.4,0,1,0-8.8,0v17.6a4.413,4.413,0,0,0,4.4,4.4H582.088a4.4,4.4,0,1,0,0-8.8Z" transform="translate(-340.519 -361.729)" fill="#f2f2f2"/><path d="M591.787,774.591H249.795a.552.552,0,0,1,0-1.1H591.787a.552.552,0,0,1,0,1.1Z" transform="translate(-231.103 -486.561)" fill="#3f3d56"/><path d="M589.747,690.93H328.955a7.886,7.886,0,0,0-7.875,7.875v23.624a7.886,7.886,0,0,0,7.875,7.875H589.747a7.886,7.886,0,0,0,7.875-7.875V698.8a7.886,7.886,0,0,0-7.875-7.875Zm6.948,31.5a6.957,6.957,0,0,1-6.948,6.948H328.955a6.957,6.957,0,0,1-6.948-6.948V698.8a6.957,6.957,0,0,1,6.948-6.948H589.747A6.957,6.957,0,0,1,596.7,698.8Z" transform="translate(-269.663 -442.246)" fill="#3f3d56"/><path d="M583.988,724.532H342.882v-13.2a4.4,4.4,0,0,0-8.8,0v17.6a4.414,4.414,0,0,0,4.4,4.4H583.988a4.4,4.4,0,0,0,0-8.8Z" transform="translate(-276.642 -450.835)" fill="#f2f2f2"/><path d="M575.8,636.532H407.882v-13.2a4.4,4.4,0,0,0-8.8,0v17.6a4.413,4.413,0,0,0,4.4,4.4H575.8a4.4,4.4,0,0,0,0-8.8Z" transform="translate(-311.533 -403.598)" fill="#f2f2f2"/><path d="M582,705.785c-37.058-9.264-115.8,3.706-117.194,3.706-1.357,0-87.507,12.808-84.667-17.635.028-.306.065-.611.111-.926H611.5c.056.273.111.584.162.926C612.561,697.892,612.121,713.317,582,705.785Z" transform="translate(-301.329 -442.246)" fill="#ff4779"/><path d="M594.918,607.93H392.955a7.886,7.886,0,0,0-7.875,7.875v23.624a7.893,7.893,0,0,0,7.875,7.875H594.918a7.9,7.9,0,0,0,7.875-7.875V615.8a7.886,7.886,0,0,0-7.875-7.875Zm6.948,31.5a6.963,6.963,0,0,1-6.948,6.948H392.955a6.962,6.962,0,0,1-6.948-6.948V615.8a6.957,6.957,0,0,1,6.948-6.948H594.918a6.957,6.957,0,0,1,6.948,6.948Z" transform="translate(-304.017 -397.693)" fill="#3f3d56"/><path d="M578.084,620.985c-32.39-8.1-101.22,3.239-102.434,3.239-1.186,0-76.486,11.195-74-15.414.024-.267.057-.534.1-.81H603.871c.049.239.1.51.142.81C604.794,614.085,604.409,627.568,578.084,620.985Z" transform="translate(-312.877 -397.731)" fill="#ff4779"/><path d="M598.355,563.3h-152.4a7.884,7.884,0,0,1-7.875-7.875V531.8a7.884,7.884,0,0,1,7.875-7.875h152.4a7.884,7.884,0,0,1,7.875,7.875v23.624a7.884,7.884,0,0,1-7.875,7.875Zm-152.4-38.447a6.956,6.956,0,0,0-6.948,6.948v23.624a6.956,6.956,0,0,0,6.948,6.948h152.4a6.956,6.956,0,0,0,6.948-6.948V531.8a6.956,6.956,0,0,0-6.948-6.948Z" transform="translate(-332.467 -352.604)" fill="#3f3d56"/><path d="M587.927,534c-24.837-6.209-77.617,2.484-78.548,2.484-.91,0-58.65,8.584-56.747-11.819.019-.2.043-.41.075-.621H607.7c.037.183.074.391.109.621C608.408,528.7,608.113,539.043,587.927,534Z" transform="translate(-340.253 -352.662)" fill="#ff4779"/><ellipse cx="15.749" cy="1.39" rx="15.749" ry="1.39" transform="translate(174.133 170.895)" fill="#3f3d56"/><path d="M587.114,409.325a4.861,4.861,0,0,0,.023.767l-17.6,14.768-5.248-1.9-3.9,7.545,11.473,5.461L591.1,414.379a4.862,4.862,0,1,0-3.987-5.054Z" transform="translate(-398.12 -288.621)" fill="#ffb8b8"/><path d="M542.653,447.011l-16.993-6.134a6.253,6.253,0,0,1,4.246-11.764l16.992,6.133a2.084,2.084,0,0,1,1.253,2.668l-2.831,7.843a2.087,2.087,0,0,1-2.668,1.253Z" transform="translate(-377.26 -301.508)" fill="#2f2e41"/><path d="M616.544,369a.463.463,0,0,1-.463-.463V351.393a.463.463,0,1,1,.926,0v17.139A.463.463,0,0,1,616.544,369Z" transform="translate(-428.014 -259.741)" fill="#3f3d56"/><path d="M613.683,314.619c4.311,4.005-1.064,12.507-6.948,12.507a10.654,10.654,0,0,1-10.654-10.654c0-5.884,11.515-31.84,9.264-26.4C604.627,291.8,608.747,310.032,613.683,314.619Z" transform="translate(-417.279 -226.672)" fill="#ff6584"/><path d="M614.54,429.847h-7.875a2.087,2.087,0,0,1-2.085-2.084V380.514a2.087,2.087,0,0,1,2.085-2.085h7.875a2.087,2.087,0,0,1,2.084,2.084v47.248A2.087,2.087,0,0,1,614.54,429.847Z" transform="translate(-421.841 -274.502)" fill="#ccc"/><path d="M330.184,417.722h5.679l2.7-21.9h-8.382Z" transform="translate(-177.236 -212.467)" fill="#ffb8b8"/><path d="M0,0H17.849V6.9H6.9A6.9,6.9,0,0,1,0,0H0Z" transform="translate(169.579 210.528) rotate(179.997)" fill="#2f2e41"/><path d="M299.887,406.5l4.646,3.267,14.81-16.365-6.857-4.821Z" transform="translate(-160.974 -208.585)" fill="#ffb8b8"/><path d="M0,0H17.848V6.9H6.9A6.9,6.9,0,0,1,0,0H0Z" transform="matrix(-0.818, -0.575, 0.575, -0.818, 149.485, 211.799)" fill="#2f2e41"/><path d="M544.775,511.854s14.172-1.672,11.628,7.524-30.888,17.139-30.888,17.139Z" transform="translate(-379.4 -346.058)" fill="#ffb8b8"/><circle cx="11.377" cy="11.377" r="11.377" transform="translate(144.243 96.117)" fill="#ffb8b8"/><path d="M461.324,484.542c-6.474-7.538-8.739-19.107,1.585-28.73a34.028,34.028,0,0,1,8.562-5.686l8.321-23.27a12.68,12.68,0,0,1,11.718-8.429A12.135,12.135,0,0,1,503.281,426a10.533,10.533,0,0,1,.327,7.459,119.822,119.822,0,0,1-9.708,22.213l.43,3.442,21.032,1.869-.2.319c-.1.166-10.4,15.849-23.563,26.259a21.639,21.639,0,0,1-13.553,5.034A22.458,22.458,0,0,1,461.324,484.542Z" transform="translate(-341.986 -295.966)" fill="#2f2e41"/><path d="M580.849,445.987a4.874,4.874,0,0,0-.305.7l-22.205,5.888-3.942-3.95-6.739,5.17,8.064,9.82,26.589-11.364a4.862,4.862,0,1,0-1.461-6.269Z" transform="translate(-391.285 -309.394)" fill="#ffb8b8"/><path d="M533.515,448.578,520.74,435.8a6.253,6.253,0,0,1,8.844-8.844l12.774,12.774a2.084,2.084,0,0,1,0,2.948l-5.9,5.9a2.087,2.087,0,0,1-2.948,0Z" transform="translate(-375.854 -299.569)" fill="#2f2e41"/><path d="M448.193,358.663c2.013-2.4,2.876-5.536,3.571-8.589,1.1-4.831,1.949-9.826,4.391-14.137s6.928-7.883,11.875-7.611c4.919.27,8.9,4.227,11.006,8.73a3.915,3.915,0,0,1,3.179.153c1.521.833,2.09,3.2.824,4.386a10.511,10.511,0,0,1,8.559-.213,10.346,10.346,0,0,1,6.267,8.78,5.64,5.64,0,0,1-1.5,4.232c-2.183,2.247-5.27,1.472-8.015.9-2.593-.541-5.751-.687-7.212,1.784a4.631,4.631,0,0,0-.451,3.384c.56,2.466,2.385,4.184,4.157,5.828l.29.538A12.719,12.719,0,0,1,478.6,342.3h0a2.256,2.256,0,0,1-2.025-3.38,10.723,10.723,0,0,0-5.473-1.365c-3.116.2-5.812,2.422-7.434,5.091a30.745,30.745,0,0,0-3.1,8.8,26.993,26.993,0,0,1-3.283,8.72,13.878,13.878,0,0,1-22.234,1.14A11.075,11.075,0,0,0,448.193,358.663Z" transform="translate(-330.84 -247.599)" fill="#2f2e41"/></g></svg>