<svg xmlns="http://www.w3.org/2000/svg" width="352.585" height="234.317" viewBox="0 0 352.585 234.317"><g transform="translate(0 0)"><path d="M441.246,435.575c12.083-21.256,35.132-37.576,59.531-36a112.651,112.651,0,0,0-29.627,71.442c-.4,10.246.221,21.684-6.583,29.357-4.233,4.774-10.7,7.086-17.065,7.571s-12.723-.665-19-1.809l-1.523.467C426.4,482.157,429.163,456.831,441.246,435.575Z" transform="translate(-314.773 -300.724)" fill="#f0f0f0"/><path d="M500.793,399.306a96.288,96.288,0,0,0-42.872,40.883,41.466,41.466,0,0,0-4.539,12.173,23.782,23.782,0,0,0,1.237,12.455c1.34,3.727,3.143,7.384,3.554,11.372a14.561,14.561,0,0,1-3.9,11.253c-3.406,3.816-7.981,6.181-12.534,8.339-5.056,2.4-10.346,4.8-13.927,9.273-.434.542-1.249-.163-.816-.7,6.231-7.778,16.9-9.24,24.292-15.505,3.451-2.923,6.042-6.9,5.878-11.57-.143-4.079-2-7.852-3.388-11.614a25.377,25.377,0,0,1-1.664-12.133,38.332,38.332,0,0,1,4.054-12.3,93.413,93.413,0,0,1,17.178-23.608,97.994,97.994,0,0,1,27.095-19.332c.623-.3.968.722.349,1.02Z" transform="translate(-314.754 -299.947)" fill="#fff"/><path d="M508.044,464.1a14.446,14.446,0,0,1-4.359-18.191c.316-.617,1.29-.156.974.462a13.377,13.377,0,0,0,4.09,16.913c.562.407-.146,1.22-.7.816Z" transform="translate(-362.11 -329.766)" fill="#fff"/><path d="M498.413,555.626a27.843,27.843,0,0,0,17.629-10.049c.436-.54,1.251.165.816.7A28.961,28.961,0,0,1,498.492,556.7c-.688.1-.763-.977-.079-1.075Z" transform="translate(-359.475 -392.556)" fill="#fff"/><path d="M573.406,432.464a8.177,8.177,0,0,0,7.309,2.606c.686-.107.761.968.079,1.075a9.163,9.163,0,0,1-8.091-2.865.557.557,0,0,1-.056-.76A.542.542,0,0,1,573.406,432.464Z" transform="translate(-406.415 -321.409)" fill="#fff"/><path d="M547.726,557.915c-.427.079-.853.158-1.284.245a107.678,107.678,0,0,0-16.837,4.654c-.426.148-.855.3-1.276.465a113.525,113.525,0,0,0-35.705,21.729,110.242,110.242,0,0,0-11.565,12.119c-4.891,5.976-9.719,12.845-16.111,16.741a18.908,18.908,0,0,1-2.058,1.116L426.07,599.711c-.066-.077-.136-.145-.2-.222l-1.5-.543c.167-.236.345-.477.513-.713.1-.137.2-.271.3-.408.067-.09.134-.181.189-.266.022-.03.045-.06.063-.082.055-.085.115-.159.167-.236q1.49-2.026,3.014-4.037c0-.008,0-.008.015-.013a162.107,162.107,0,0,1,26.323-27.855c.3-.241.6-.491.911-.725a105.2,105.2,0,0,1,14.22-9.619,92.989,92.989,0,0,1,8.435-4.171,77.338,77.338,0,0,1,23.431-5.976c16.1-1.495,32.5,2.175,44.842,12.289C547.106,557.392,547.414,557.648,547.726,557.915Z" transform="translate(-313.176 -392.014)" fill="#f0f0f0"/><path d="M548.319,576.862a96.285,96.285,0,0,0-58.846,6.831,41.463,41.463,0,0,0-10.953,6.987,23.781,23.781,0,0,0-6.511,10.689c-1.174,3.783-1.936,7.788-4.009,11.219a14.561,14.561,0,0,1-9.887,6.638c-5.017,1-10.094.131-15.029-.889-5.479-1.132-11.152-2.394-16.7-.981-.673.171-.9-.882-.227-1.053,9.657-2.459,19.053,2.795,28.731,2.245,4.516-.256,8.981-1.875,11.659-5.7,2.342-3.343,3.132-7.473,4.287-11.313a25.377,25.377,0,0,1,5.977-10.689,38.332,38.332,0,0,1,10.644-7.382,93.415,93.415,0,0,1,27.929-8.507,97.992,97.992,0,0,1,33.273.877c.678.136.339,1.159-.335,1.024Z" transform="translate(-314.045 -410.529)" fill="#fff"/><path d="M612.18,562.791a14.446,14.446,0,0,1,7.471-17.149c.624-.3,1.124.652.5.955a13.377,13.377,0,0,0-6.918,15.966C613.437,563.227,612.382,563.45,612.18,562.791Z" transform="translate(-430.983 -392.681)" fill="#fff"/><path d="M550.051,642.43a27.843,27.843,0,0,0,20.125,2.591c.673-.169.9.885.227,1.053a28.961,28.961,0,0,1-20.937-2.738C548.858,643,549.446,642.1,550.051,642.43Z" transform="translate(-391.743 -453.585)" fill="#fff"/><path d="M694.592,575.354a8.177,8.177,0,0,0,4.267,6.481c.612.328.024,1.231-.584.906a9.163,9.163,0,0,1-4.736-7.159.557.557,0,0,1,.413-.64A.542.542,0,0,1,694.592,575.354Z" transform="translate(-482.569 -411.15)" fill="#fff"/><path d="M288.792,539.865c-5.157-24.933-11.6-33.246-11.6-33.246l-2.462-1.91-2.961-2.3.014-.3-.7-.239-.165-.128-.27-.208-.043.047-.092.1-13.4-4.555-17-5.775-7.872-10.232a13.616,13.616,0,0,0-10.892-5.313l-25.142.186a13.616,13.616,0,0,0-9.159,3.633l-16.525,15.328-25.749,12.3-.043-.044-.27.193-3.979,1.9.164.855-2.462,1.777s-6.446,7.735-11.6,30.935c-1.312,5.9-1.957,18.566-2.191,34.17a5.956,5.956,0,0,0,5.954,6.045h154.7a5.957,5.957,0,0,0,5.954-6.038C290.761,560.066,290.116,546.266,288.792,539.865Z" transform="translate(-124.382 -348.767)" fill="#3f3d56"/><path d="M581.292,191.732a20.175,20.175,0,1,0,0,40.35H731.647a20.175,20.175,0,1,0,0-40.35Z" transform="translate(-399.237 -169.988)" fill="#e5e5e5"/><path d="M588.225,202.747a16.092,16.092,0,1,0,0,32.184H738.58a16.092,16.092,0,1,0,0-32.184Z" transform="translate(-406.17 -176.921)" fill="#fff"/><circle cx="32.938" cy="32.938" r="32.938" transform="translate(55.399 51.718)" fill="#9e616a"/><path d="M339.257,444.389q-.211-.465-.421-.933c.054,0,.107.01.161.011Z" transform="translate(-259.347 -328.409)" fill="#2f2e41"/><path d="M249.456,250.131c1.666-1.329,3.613-2.552,5.743-2.483s4.29,1.992,3.848,4.077a33.848,33.848,0,0,1,40.734-15.274c5.294,1.868,10.485,5.6,11.7,11.084.312,1.407.379,2.949,1.258,4.092a4.671,4.671,0,0,0,4.971,1.259l.052-.015a1.556,1.556,0,0,1,1.88,2.2l-1.5,2.793a12,12,0,0,0,5.719-.122,1.555,1.555,0,0,1,1.651,2.42A27.1,27.1,0,0,1,303.9,271.268c-5.985-.036-12.031-2.1-17.855-.723a15.51,15.51,0,0,0-10.432,21.773c-1.789-1.957-5.248-1.494-7.078.425s-2.3,4.783-2.12,7.428c.282,4.046,1.867,7.859,3.538,11.569a34.586,34.586,0,0,1-20.5-61.609Z" transform="translate(-194.973 -196.916)" fill="#2f2e41"/><path d="M87.464,495.253,96.7,545.517l5.543.483Z" transform="translate(-55.044 -311.683)" opacity="0.2"/><path d="M336.909,485.026l-9.238,54.018-5.543.519Z" transform="translate(-202.728 -305.247)" opacity="0.2"/><path d="M261.1,169.368a3.284,3.284,0,0,1-4.395-1.927,3.335,3.335,0,0,1,1.748-4.549,3.5,3.5,0,0,1,2.647,6.477Zm-3.393-10.186-1.408.588a1.519,1.519,0,0,1-1.93-.708l-.07-.136c-1.515-2.733-1.689-6.055-.513-9.867,1.089-3.42,1.542-5.826.632-8-1.052-2.52-3.3-3.309-6.163-2.165a5.236,5.236,0,0,0-2.339,1.324,2.008,2.008,0,0,1-1.453.591,1.941,1.941,0,0,1-1.389-.609,1.982,1.982,0,0,1-.014-2.7,15.4,15.4,0,0,1,5.206-3.575c6.155-2.57,9.254,1.224,10.672,4.62,1.387,3.322.607,6.4-.647,10.395-1.051,3.316-.989,5.774.2,8.217a1.513,1.513,0,0,1-.788,2.035Z" transform="translate(-198.742 -133.069)" fill="#ff4779"/><path d="M653.133,269.675H623.219a.721.721,0,0,1,0-1.441h29.915a.721.721,0,0,1,0,1.441Z" transform="translate(-437.866 -218.134)" fill="#ff4779"/><path d="M755.514,270.323H725.6a.721.721,0,0,1,0-1.441h29.915a.721.721,0,0,1,0,1.441Z" transform="translate(-502.299 -218.542)" fill="#ff4779"/><path d="M857.9,270.971H827.982a.721.721,0,0,1,0-1.441H857.9a.721.721,0,0,1,0,1.441Z" transform="translate(-566.732 -218.95)" fill="#ff4779"/><path d="M960.274,271.619H930.36a.721.721,0,1,1,0-1.441h29.915a.721.721,0,0,1,0,1.441Z" transform="translate(-631.163 -219.358)" fill="#ff4779"/><circle cx="5.56" cy="5.56" r="5.56" transform="translate(194.684 33.79)" fill="#ff4779"/><circle cx="5.56" cy="5.56" r="5.56" transform="translate(232.862 33.79)" fill="#ff4779"/><circle cx="5.56" cy="5.56" r="5.56" transform="translate(271.039 33.79)" fill="#ff4779"/><circle cx="5.56" cy="5.56" r="5.56" transform="translate(309.217 33.79)" fill="#ff4779"/></g></svg>