<svg xmlns="http://www.w3.org/2000/svg" width="322" height="228.598" viewBox="0 0 322 228.598"><g transform="translate(0 0)"><path d="M371.751,306.1c-16.334-16.08-23.233-32.856-19.426-47.236,4.886-18.454,26.59-31.214,59.547-35.007l.122,1.059c-32.5,3.74-53.872,16.213-58.639,34.221-3.705,13.995,3.094,30.4,19.144,46.2Z" transform="translate(-296.747 -205.898)" fill="#f0f0f0"/><path d="M584.613,494.328a255.7,255.7,0,0,1-64.545-8.855c-27.212-7.2-52.162-18.078-72.153-31.446l.592-.885c19.9,13.3,44.735,24.127,71.834,31.3,24.489,6.484,49.162,9.488,71.342,8.695l.039,1.064Q588.208,494.329,584.613,494.328Z" transform="translate(-352.009 -337.046)" fill="#f0f0f0"/><path d="M770.874,366.78l-.341-1.009c18.233-6.165,29.637-16.1,32.979-28.719,4.248-16.048-4.981-34.67-25.989-52.437-21.115-17.857-51.562-32.674-85.736-41.721l.273-1.03c34.323,9.087,64.919,23.98,86.151,41.938,21.339,18.047,30.691,37.055,26.331,53.523C801.1,350.31,789.462,360.5,770.874,366.78Z" transform="translate(-491.501 -216.197)" fill="#f0f0f0"/><path d="M369.251,462.886c-40.058-17.766-70.926-40.816-86.917-64.9l.887-.589c15.88,23.921,46.586,46.833,86.461,64.519Z" transform="translate(-257.299 -305.158)" fill="#f0f0f0"/><path d="M797.618,605.777q-6.2,0-12.607-.277l.046-1.064c31.888,1.381,60.023-2.435,81.369-11.038l.4.988C848.2,601.89,824.469,605.777,797.618,605.777Z" transform="translate(-544.824 -417.271)" fill="#f0f0f0"/><path d="M584.082,200.811c-6.621-2.156-13.431-4.163-20.241-5.966-39.19-10.375-77.715-14.059-111.41-10.651l-.107-1.06c33.821-3.419,72.477.273,111.79,10.681,6.829,1.808,13.659,3.821,20.3,5.983Z" transform="translate(-354.531 -181.896)" fill="#f0f0f0"/><path d="M313.259,309.833c-16.335-16.08-23.233-32.856-19.427-47.236,4.886-18.454,26.59-31.214,59.547-35.007l.122,1.059c-32.5,3.74-53.872,16.213-58.639,34.221-3.7,13.995,3.094,30.4,19.144,46.2Z" transform="translate(-263.291 -208.033)" fill="#f0f0f0"/><path d="M526.12,498.061a255.7,255.7,0,0,1-64.545-8.855c-27.212-7.2-52.162-18.078-72.153-31.446l.592-.885c19.9,13.3,44.735,24.127,71.834,31.3,24.489,6.484,49.162,9.488,71.342,8.695l.039,1.064Q529.715,498.062,526.12,498.061Z" transform="translate(-318.552 -339.181)" fill="#f0f0f0"/><path d="M712.382,370.514l-.341-1.009c18.233-6.165,29.637-16.1,32.979-28.719,4.248-16.048-4.981-34.67-25.989-52.437-21.115-17.857-51.562-32.674-85.736-41.721l.273-1.03c34.323,9.087,64.919,23.98,86.151,41.937,21.339,18.047,30.691,37.055,26.331,53.523C742.612,354.044,730.97,364.229,712.382,370.514Z" transform="translate(-458.045 -218.333)" fill="#f0f0f0"/><path d="M310.759,466.62c-40.058-17.766-70.926-40.816-86.917-64.9l.887-.589c15.88,23.921,46.586,46.833,86.461,64.519Z" transform="translate(-223.842 -307.294)" fill="#f0f0f0"/><path d="M739.126,609.511q-6.2,0-12.607-.277l.046-1.064c31.888,1.381,60.023-2.435,81.369-11.038l.4.988C789.711,605.623,765.977,609.511,739.126,609.511Z" transform="translate(-511.367 -419.407)" fill="#f0f0f0"/><path d="M525.591,204.544c-6.621-2.156-13.431-4.163-20.241-5.966-39.19-10.375-77.715-14.059-111.41-10.651l-.107-1.06c33.821-3.419,72.477.273,111.79,10.681,6.829,1.808,13.659,3.821,20.3,5.983Z" transform="translate(-321.074 -184.031)" fill="#f0f0f0"/><path d="M248.128,337.575c7.656-8.583,19.868-13.815,30.935-10.683a52.992,52.992,0,0,0-20.679,29.935c-1.2,4.673-2.039,10-5.925,12.852a11.846,11.846,0,0,1-8.6,1.8,35.184,35.184,0,0,1-8.56-2.708l-.746.065C236.7,357.534,240.472,346.158,248.128,337.575Z" transform="translate(-229.97 -264.308)" fill="#f2f2f2"/><path d="M279.121,327.99a45.294,45.294,0,0,0-23.754,14.572,19.5,19.5,0,0,0-3.289,5.151,11.187,11.187,0,0,0-.66,5.85,23.155,23.155,0,0,1,.512,5.581,6.85,6.85,0,0,1-2.9,4.791,17.8,17.8,0,0,1-6.588,2.6c-2.562.6-5.233,1.188-7.321,2.89-.253.206-.558-.2-.306-.4,3.633-2.962,8.683-2.582,12.7-4.733a6.937,6.937,0,0,0,3.846-4.741,17.965,17.965,0,0,0-.412-5.676,11.937,11.937,0,0,1,.432-5.745,18.031,18.031,0,0,1,3.079-5.258,43.941,43.941,0,0,1,10.231-9.162,46.1,46.1,0,0,1,14.37-6.217c.316-.076.374.427.06.5Z" transform="translate(-230.062 -265.168)" fill="#fff"/><path d="M285,345.122a6.8,6.8,0,0,1-.209-8.8c.206-.253.609.056.4.309a6.292,6.292,0,0,0,.211,8.183C285.62,345.059,285.215,345.363,285,345.122Z" transform="translate(-257.837 -270.174)" fill="#fff"/><path d="M272.778,382.348a13.1,13.1,0,0,0,9.1-2.881c.254-.205.559.2.306.4a13.624,13.624,0,0,1-9.475,2.979C272.382,382.827,272.453,382.325,272.778,382.348Z" transform="translate(-251.671 -294.872)" fill="#fff"/><path d="M314.69,336.715a3.847,3.847,0,0,0,3.1,1.92c.326.018.254.52-.07.5a4.31,4.31,0,0,1-3.439-2.116.262.262,0,0,1,.049-.355.255.255,0,0,1,.355.049Z" transform="translate(-275.547 -270.394)" fill="#fff"/><path d="M294.01,396.951c-.2-.006-.408-.012-.615-.014a50.657,50.657,0,0,0-8.2.479c-.211.026-.423.056-.633.088a53.4,53.4,0,0,0-18.567,6.469,51.859,51.859,0,0,0-6.515,4.432c-2.84,2.266-5.738,4.948-9.063,6.11a8.9,8.9,0,0,1-1.057.31l-15.428-10.659c-.023-.042-.048-.08-.072-.122l-.635-.4c.1-.092.206-.185.306-.277.058-.054.119-.1.177-.159.04-.035.08-.07.113-.1l.037-.031c.034-.034.069-.062.1-.092q.885-.785,1.785-1.559s0,0,.008,0a76.257,76.257,0,0,1,14.857-10.213c.16-.082.323-.167.491-.243a49.488,49.488,0,0,1,7.49-3.021,43.758,43.758,0,0,1,4.292-1.086,36.381,36.381,0,0,1,11.367-.436c7.552.9,14.731,4.208,19.412,10.078C293.777,396.65,293.893,396.8,294.01,396.951Z" transform="translate(-229.208 -298.736)" fill="#f2f2f2"/><path d="M294.23,406.1a45.294,45.294,0,0,0-27.74-2.667,19.506,19.506,0,0,0-5.727,2.132,11.187,11.187,0,0,0-4.05,4.274,23.155,23.155,0,0,1-2.951,4.764,6.85,6.85,0,0,1-5.2,2.077,17.8,17.8,0,0,1-6.824-1.892c-2.408-1.061-4.893-2.2-7.586-2.1-.326.012-.326-.495,0-.507,4.685-.178,8.487,3.166,12.993,3.869a6.937,6.937,0,0,0,5.925-1.47,17.964,17.964,0,0,0,3.089-4.78,11.938,11.938,0,0,1,3.8-4.326,18.032,18.032,0,0,1,5.624-2.345,43.944,43.944,0,0,1,13.685-1.156,46.1,46.1,0,0,1,15.217,3.688c.3.129.041.566-.255.438Z" transform="translate(-229.598 -307.712)" fill="#fff"/><path d="M316.91,394.019a6.8,6.8,0,0,1,5.129-7.15c.317-.078.453.411.135.489a6.293,6.293,0,0,0-4.758,6.661C317.445,394.343,316.938,394.342,316.91,394.019Z" transform="translate(-277.063 -299.134)" fill="#fff"/><path d="M287.434,418.351a13.1,13.1,0,0,0,9,3.178c.326-.011.327.5,0,.507a13.624,13.624,0,0,1-9.359-3.326C286.829,418.5,287.188,418.137,287.434,418.351Z" transform="translate(-259.963 -317.108)" fill="#fff"/><path d="M350.713,404.01a3.847,3.847,0,0,0,1.323,3.4c.249.211-.11.569-.358.359a4.31,4.31,0,0,1-1.472-3.76.262.262,0,0,1,.253-.254.255.255,0,0,1,.254.253Z" transform="translate(-296.104 -308.798)" fill="#fff"/><path d="M932.987,490.13c-4.325-10.657-14.069-19.689-25.544-20.459a52.992,52.992,0,0,1,9.415,35.143c-.445,4.8-1.439,10.1,1.261,14.1a11.846,11.846,0,0,0,7.492,4.582,35.178,35.178,0,0,0,8.972.327l.681.312C937.04,512.768,937.312,500.787,932.987,490.13Z" transform="translate(-614.854 -346.5)" fill="#f2f2f2"/><path d="M907.165,469.563a45.294,45.294,0,0,1,17.474,21.708,19.505,19.505,0,0,1,1.367,5.957,11.188,11.188,0,0,1-1.344,5.732,23.152,23.152,0,0,0-2.358,5.084,6.85,6.85,0,0,0,1.124,5.488,17.8,17.8,0,0,0,5.332,4.661c2.21,1.429,4.529,2.877,5.923,5.183.169.279.593,0,.424-.278-2.427-4.011-7.31-5.35-10.373-8.728a6.936,6.936,0,0,1-2.028-5.758A17.959,17.959,0,0,1,925,503.4a11.938,11.938,0,0,0,1.523-5.556,18.034,18.034,0,0,0-1.132-5.987,43.941,43.941,0,0,0-6.557-12.068,46.1,46.1,0,0,0-11.445-10.685c-.272-.178-.5.277-.226.454Z" transform="translate(-614.625 -346.155)" fill="#fff"/><path d="M945.46,502.9a6.8,6.8,0,0,0,3.154-8.215c-.109-.307-.592-.152-.483.156a6.292,6.292,0,0,1-2.949,7.636C944.9,502.631,945.175,503.054,945.46,502.9Z" transform="translate(-636.371 -360.712)" fill="#fff"/><path d="M938.7,538.555a13.1,13.1,0,0,1-7.6-5.772c-.17-.279-.594,0-.424.278a13.624,13.624,0,0,0,7.923,5.99c.315.088.416-.409.1-.5Z" transform="translate(-628.119 -382.533)" fill="#fff"/><path d="M921.24,485.655a3.847,3.847,0,0,1-3.569.765c-.313-.092-.414.4-.1.5a4.31,4.31,0,0,0,3.95-.837.262.262,0,0,0,.073-.351A.255.255,0,0,0,921.24,485.655Z" transform="translate(-620.537 -355.619)" fill="#fff"/><path d="M844.893,530.217c.194.063.388.126.583.194a50.654,50.654,0,0,1,7.565,3.208c.189.1.38.195.566.3a53.4,53.4,0,0,1,15.313,12.333,51.856,51.856,0,0,1,4.646,6.364c1.913,3.088,3.741,6.589,6.482,8.8a8.885,8.885,0,0,0,.891.647l18.113-4.854c.036-.032.073-.059.108-.091l.732-.161c-.063-.12-.132-.244-.2-.364-.036-.07-.077-.139-.114-.209-.026-.046-.051-.093-.072-.136-.008-.015-.017-.031-.025-.042-.02-.043-.044-.081-.063-.12q-.57-1.036-1.157-2.068s0,0-.006-.007a76.256,76.256,0,0,0-10.56-14.612c-.124-.131-.248-.266-.38-.394a49.479,49.479,0,0,0-6.039-5.362,43.766,43.766,0,0,0-3.677-2.465,36.382,36.382,0,0,0-10.559-4.231c-7.415-1.689-15.289-.988-21.67,2.968C845.214,530.011,845.055,530.112,844.893,530.217Z" transform="translate(-579.076 -378.767)" fill="#f2f2f2"/><path d="M844.739,535.456a45.294,45.294,0,0,1,27.022,6.812,19.505,19.505,0,0,1,4.677,3.933,11.187,11.187,0,0,1,2.378,5.386,23.154,23.154,0,0,0,1.178,5.479,6.849,6.849,0,0,0,4.2,3.705,17.8,17.8,0,0,0,7.063.512c2.625-.19,5.348-.429,7.85.572.3.121.474-.356.171-.477-4.352-1.742-9.058.129-13.537-.723a6.937,6.937,0,0,1-5.086-3.376,17.963,17.963,0,0,1-1.3-5.54,11.936,11.936,0,0,0-2.128-5.353,18.03,18.03,0,0,0-4.509-4.1,43.943,43.943,0,0,0-12.5-5.688,46.1,46.1,0,0,0-15.571-1.641c-.325.021-.229.52.093.5Z" transform="translate(-578.819 -383.787)" fill="#fff"/><path d="M898.641,536.648a6.8,6.8,0,0,0-2.428-8.458c-.272-.18-.564.235-.292.415a6.293,6.293,0,0,1,2.242,7.872c-.136.3.342.466.477.171Z" transform="translate(-608.201 -379.947)" fill="#fff"/><path d="M911.467,571.651a13.1,13.1,0,0,1-9.545-.032c-.3-.12-.474.357-.171.477a13.624,13.624,0,0,0,9.933.013c.3-.119.086-.577-.217-.458Z" transform="translate(-611.507 -404.802)" fill="#fff"/><path d="M866.293,536.914a3.846,3.846,0,0,1-2.389,2.759c-.306.115-.087.573.217.458a4.31,4.31,0,0,0,2.65-3.047.262.262,0,0,0-.153-.324A.255.255,0,0,0,866.293,536.914Z" transform="translate(-589.866 -384.867)" fill="#fff"/><circle cx="4.261" cy="4.261" r="4.261" transform="translate(86.145 53.195)" fill="#fd6584"/><circle cx="4.261" cy="4.261" r="4.261" transform="translate(244.423 106.6) rotate(-80.783)" fill="#e6e6e6"/><circle cx="4.261" cy="4.261" r="4.261" transform="translate(85.972 5.24)" fill="#e6e6e6"/><path d="M584.22,250.952H583V217.632a19.285,19.285,0,0,0-19.285-19.285H493.124a19.285,19.285,0,0,0-19.285,19.285h0v182.8a19.285,19.285,0,0,0,19.285,19.285h70.595A19.285,19.285,0,0,0,583,400.431V274.671h1.216Z" transform="translate(-366.837 -191.306)" fill="#3f3d56"/><path d="M586.009,224.471V407a14.4,14.4,0,0,1-14.4,14.4H500.673a14.4,14.4,0,0,1-14.4-14.4V224.471a14.4,14.4,0,0,1,14.4-14.4h8.61a6.842,6.842,0,0,0,6.334,9.427H556.06a6.845,6.845,0,0,0,6.334-9.427h9.215a14.4,14.4,0,0,1,14.4,14.4h0Z" transform="translate(-373.949 -198.011)" fill="#f2f2f2"/><rect width="22.006" height="0.985" transform="translate(117.699 29.483)" fill="#fff"/><rect width="22.006" height="0.985" transform="translate(151.189 29.483)" fill="#fff"/><path d="M585.064,521.419H513.329a1.841,1.841,0,0,1,0-3.681h71.734a1.841,1.841,0,0,1,0,3.681Z" transform="translate(-388.372 -373.994)" fill="#ccc"/><path d="M585.064,551.337H513.329a1.841,1.841,0,0,1,0-3.681h71.734a1.841,1.841,0,0,1,0,3.681Z" transform="translate(-388.372 -391.107)" fill="#ccc"/><path d="M585.064,581.255H513.329a1.841,1.841,0,0,1,0-3.681h71.734a1.841,1.841,0,0,1,0,3.681Z" transform="translate(-388.372 -408.219)" fill="#ccc"/><rect width="22.006" height="0.985" transform="translate(184.679 29.483)" fill="#fff"/><rect width="22.006" height="0.985" transform="translate(117.699 206.292)" fill="#fff"/><rect width="22.006" height="0.985" transform="translate(151.189 206.292)" fill="#fff"/><rect width="22.006" height="0.985" transform="translate(184.679 206.292)" fill="#fff"/><circle cx="33.357" cy="33.357" r="33.357" transform="translate(128.835 55.498)" fill="#d1d3d4"/><circle cx="30.431" cy="30.431" r="30.431" transform="translate(131.761 59.902)" fill="#ff4779"/><path d="M584.748,388.459c-.066,0-.132,0-.2,0a4.053,4.053,0,0,1-3-1.561l-4.8-6.166a4.061,4.061,0,0,1,.711-5.693l.172-.134a4.063,4.063,0,0,1,5.694.71,2.433,2.433,0,0,0,1.8.937,2.387,2.387,0,0,0,1.887-.757l9.738-10.28a4.062,4.062,0,0,1,5.734-.155l.158.15a4.061,4.061,0,0,1,.156,5.735l-15.112,15.951a4.05,4.05,0,0,1-2.944,1.267Z" transform="translate(-425.213 -286.199)" fill="#fff"/><rect width="3.94" height="21.178" transform="translate(104.955 42.171)" fill="#3f3d56"/><rect width="3.94" height="12.313" transform="translate(104.955 65.812)" fill="#3f3d56"/><rect width="3.94" height="12.313" transform="translate(104.955 80.587)" fill="#3f3d56"/><circle cx="1.97" cy="1.97" r="1.97" transform="translate(140.908 13.114)" fill="#fff"/><path d="M562.117,416.394a30.426,30.426,0,0,1-30.348-28.285c-.05.7-.084,1.417-.084,2.138a30.431,30.431,0,0,0,60.863,0c0-.721-.034-1.434-.084-2.142A30.427,30.427,0,0,1,562.117,416.394Z" transform="translate(-399.925 -299.845)" fill="#231f20" opacity="0.16"/><path d="M479.182,239.466l24.133.985L506.27,224.2l-20.685-6.4Z" transform="translate(-274.087 -124.577)" fill="#ffb8b8"/><path d="M669.42,341.652l.234-7.678-11.7-2.932L636.9,324.9a4.4,4.4,0,1,0-2.346,5.374l20.472,8.415Z" transform="translate(-455.204 -261.965)" fill="#ffb8b8"/><path d="M706.725,355.41l6.58-9.384.164.022a140.155,140.155,0,0,1,17.186,3.408,5.407,5.407,0,0,1,3.5,2.911,5.671,5.671,0,0,1-.789,6.168,6.066,6.066,0,0,1-6.235,2.072Z" transform="translate(-500.045 -275.777)" fill="#ff4779"/><path d="M479.422,483.96h-6.693l-3.184-25.815h9.878Z" transform="translate(-268.574 -262.054)" fill="#ffb8b8"/><path d="M596.166,477.579l-6.617,1-7.007-25.049,8.675-1.476Z" transform="translate(-333.207 -258.57)" fill="#ffb8b8"/><path d="M718.179,435.851l-23.148-3.94-.823,1.7a78.605,78.605,0,0,0-7.7,29.2c-.559,8.559-.888,17.6-.9,27.073-.017,14.681.732,28.3,1.917,40.7l12.7-.08a300.065,300.065,0,0,1,1.5-39.426c.972-9.338,2.324-18.06,3.887-26.109a179.6,179.6,0,0,0,12.217,34.294c4.44,9.389,13.572,20.241,18.011,29.63l13.648-1.638c-3.585-9.481-9.981-23.326-13.566-32.807-5.126-13.556-7.441-22.748-12.568-36.3a41.779,41.779,0,0,0,.171-7.677c-.239-4.265-1.126-9.383-3.719-12.795Z" transform="translate(-487.966 -324.902)" fill="#2f2e41"/><path d="M734.693,379.528c1.156,2.161-1.589,6.637-3.576,7.066l-22.891-7.4,11.526-33.4,5.8,1.054,9.274,1.563,3.29,2.99a5.784,5.784,0,0,1,1.6,6.1Z" transform="translate(-500.904 -275.645)" fill="#ff4779"/><path d="M684.609,388.927l-6.476-4.133-8.508,8.545-16.06,14.941a4.4,4.4,0,1,0,3.414,4.767l17.711-13.275Z" transform="translate(-466.577 -297.952)" fill="#ffb8b8"/><path d="M717.852,375.908l-4.691-10.457.1-.13a140.179,140.179,0,0,1,11.728-13.016,5.408,5.408,0,0,1,4.294-1.517,5.675,5.675,0,0,1,4.894,3.836,6.066,6.066,0,0,1-1.413,6.416Z" transform="translate(-503.727 -278.487)" fill="#ff4779"/><circle cx="10.181" cy="10.181" r="10.181" transform="translate(218.537 47.558)" fill="#ffb8b8"/><path d="M748.949,314.663l-.039-.01-14.794-3.7a3.382,3.382,0,0,1-2.079-5.022l.489-.813a5.547,5.547,0,0,0,.227-5.3,5.839,5.839,0,0,0-3.358-2.868l-.049-.024-.311-.193a2.424,2.424,0,0,1-1.283-1.483,2.5,2.5,0,0,1,.245-2.017,12.24,12.24,0,0,1,5.592-4.93,12.623,12.623,0,0,1,9.278-.279,1.648,1.648,0,0,1,1.515-.385c7.662,1.856,8.292,7,6.779,15.253l1.792,7.226a3.62,3.62,0,0,1-3.23,4.481Zm-6.164-26.555h0Zm.185-.045h0Z" transform="translate(-512.01 -242.172)" fill="#2f2e41"/><path d="M695.341,698.1h-3.82l-.682-3.606-1.746,3.606H678.963a2.277,2.277,0,0,1-1.294-4.151l8.09-5.587v-3.646l8.509.508Z" transform="translate(-482.863 -469.505)" fill="#2f2e41"/><path d="M815.773,698.1h-3.82l-.682-3.606-1.746,3.606H799.4a2.277,2.277,0,0,1-1.294-4.151l8.09-5.587v-3.646l8.509.508Z" transform="translate(-551.749 -469.505)" fill="#2f2e41"/></g></svg>