<svg xmlns="http://www.w3.org/2000/svg" width="9.95" height="9.95" viewBox="0 0 9.95 9.95"><path d="M0,0H9.95V9.95H0Z" fill="none"/><path d="M9.786,9.613v.846H1.418V9.613h.418V6.755A1.918,1.918,0,0,1,1.265,4.2L2.4,2.211A.418.418,0,0,1,2.762,2H8.443a.418.418,0,0,1,.362.211l1.13,1.98a1.914,1.914,0,0,1-.568,2.563V9.613ZM3,2.846,1.986,4.628a1.062,1.062,0,0,0,.5,1.344,1.04,1.04,0,0,0,1.364-.407.417.417,0,0,1,.777,0,1.042,1.042,0,0,0,1.943,0,.417.417,0,0,1,.777,0,1.041,1.041,0,0,0,1.857.161,1.067,1.067,0,0,0,.008-1.1L8.2,2.846H3Z" transform="translate(-0.627 -1.254)" fill="#7d7d7d"/></svg>