<svg xmlns="http://www.w3.org/2000/svg" width="56.569" height="48.247" viewBox="0 0 56.569 48.247"><path d="M121.263,73.37a1.581,1.581,0,0,0-.857-1.163h-.122c.306-1.591,1.224-7.343-1.774-10.708-1.713-1.958-4.406-2.692-8.016-2.325-.061,0-.122-.061-.184-.061a7.426,7.426,0,0,0-6.425,2.509c-2.753,3.426-1.774,9.178-1.469,10.525h-.122c-.918.367-1.224,1.591-.734,2.815a2.291,2.291,0,0,0,1.958,1.652h.245a8.008,8.008,0,0,0,3.549,4.834v2.142h-1.224l.979,7.037H115.7l.979-7.037h-1.224V81.448A8.445,8.445,0,0,0,119,76.614h.245a2.314,2.314,0,0,0,1.958-1.652,3.516,3.516,0,0,0,.061-1.591Zm-18.846,1.285c-.306-.8-.122-1.469.184-1.591h.122c.122,0,.184.061.306.061a18.162,18.162,0,0,0,.49,2.631c-.368,0-.857-.428-1.1-1.1ZM116,84.568a7.168,7.168,0,0,1-9.3,0h1.1a.483.483,0,0,0,.49-.49V81.937a7.57,7.57,0,0,0,6.241,0v2.142a.483.483,0,0,0,.49.49Zm2.753-11.932a4.113,4.113,0,0,1-.122.857c-.122.673-.245,1.346-.367,1.958-.061.245-.123.429-.184.673a7.809,7.809,0,0,1-2.815,4.406,6.691,6.691,0,0,1-.673.367,7.455,7.455,0,0,1-3.243.857,8.416,8.416,0,0,1-3.243-.8,2.523,2.523,0,0,1-.673-.429,7.811,7.811,0,0,1-2.815-4.406c-.061-.245-.123-.429-.184-.673-.122-.612-.245-1.285-.367-1.958-.061-.245-.061-.551-.122-.857q-.092-1.1-.184-2.386a9.955,9.955,0,0,1,.429-1.713,7.078,7.078,0,0,0,1.591-.49.557.557,0,0,0,.49.245,8.469,8.469,0,0,0,2.876-.673V67.8a.588.588,0,0,0,.551.429,5.521,5.521,0,0,0,4.039-1.652,10.009,10.009,0,0,0,4.528,5.079l.367.551a.661.661,0,0,1,.123.429Zm1.53,2.019a1.616,1.616,0,0,1-1.1,1.1c.184-.857.367-1.713.49-2.631.184-.061.306-.122.429-.061a.484.484,0,0,1,.306.49,2.363,2.363,0,0,1-.123,1.1Zm-9.974,1.224V74.594a.483.483,0,0,1,.49-.49.45.45,0,0,1,.49.49v1.163h.734a.483.483,0,0,1,.49.49.45.45,0,0,1-.49.49h-.8a.932.932,0,0,1-.918-.857Zm-2.2-2.937a.941.941,0,0,1-.918.918.889.889,0,0,1-.857-.918.941.941,0,0,1,.918-.918A.889.889,0,0,1,108.107,72.942Zm8.261,0a.918.918,0,1,1-.918-.918A.941.941,0,0,1,116.368,72.942Zm-2.753,5.751c0,.734-1.163.979-2.264.979s-2.264-.245-2.264-.979a.483.483,0,0,1,.49-.49.461.461,0,0,1,.429.306,3.64,3.64,0,0,0,1.346.245,2.5,2.5,0,0,0,1.346-.245.46.46,0,0,1,.429-.306c.244.061.489.245.489.49Zm33.532,14.135.429-1.958c.061-.061.122-.061.184-.184a.778.778,0,0,0,.061-.367c-.367-1.04-1.713-1.9-3.855-2.447a7.2,7.2,0,0,0-1.224-.245l-1.1-.184c-.673-.061-1.346-.122-2.08-.122h-.612c-.734,0-1.407.061-2.08.122l-1.1.184c-.429.061-.857.184-1.224.245-2.142.551-3.488,1.407-3.855,2.447a.405.405,0,0,0,.061.367l.184.184.429,1.958a.975.975,0,0,0-.857.8h-1.9l-7.343-9.24a2.78,2.78,0,0,0-2.2-1.1L117.9,91.421l-.061.367v.122l.061.49,1.774,14.38H103.029l.061-.306L104.8,92.4l.061-.49v-.123l-.061-.367-1.1-7.893a2.88,2.88,0,0,0-1.836.979L92.259,95.643a2.867,2.867,0,0,0-.673,2.325,2.77,2.77,0,0,0,1.346,2.019l9.178,5.813v.918a.578.578,0,0,0,.612.612h17.255a.578.578,0,0,0,.612-.612V92.951l4.222,5.385a3,3,0,0,0,2.264,1.1h7.159a2.918,2.918,0,0,0,1.9-.734.778.778,0,0,0,.367.061h6.547c.612,0,1.04-.551,1.04-1.285a1.391,1.391,0,0,0-.367-.979.983.983,0,0,0-.673-.306h-.918c0-.122.061-.245.061-.429h4.834a1.1,1.1,0,0,0,1.1-1.1v-.857a1.167,1.167,0,0,0-.979-.978Zm-45.035,6.119-3.243-2.019,3.243-3.733ZM141.7,88.361c.245.061.49.061.734.123l.184.184-.673.49-.673-.49Zm-2.631-.122h.245l.551.429-.673.49-.673-.49Zm-3.243.428.184-.184c.245-.061.49-.061.734-.122l.367.306-.673.49Zm-1.958.306-.612.49a.435.435,0,0,0-.184.367c0,.122.061.184.123.306a.48.48,0,0,0,.673.061l1.163-.918.857.673c0,.061.061.122.122.184a.661.661,0,0,0,.429.184c.184.061.306,0,.429-.184.061-.061.061-.122.122-.184l.857-.673.857.673c0,.061.061.122.123.184a.661.661,0,0,0,.429.184c.184.061.306,0,.429-.184.061-.061.061-.122.122-.184l.857-.673.857.673c0,.061.061.122.122.184a.661.661,0,0,0,.429.184c.184.061.306,0,.429-.184.061-.061.061-.122.122-.184l.857-.673,1.163.918a.485.485,0,0,0,.673-.061.468.468,0,0,0,.123-.306.528.528,0,0,0-.184-.367l-.551-.49a5.155,5.155,0,0,1,2.019,1.1,2.166,2.166,0,0,0-.612.122c-.061,0-.123.061-.184.061a.848.848,0,0,0-.49.429c-.061.061-.122.184-.184.245s-.061.122-.123.245a.84.84,0,0,1-.184.245,2.029,2.029,0,0,1-.367-.184h-.061a1.831,1.831,0,0,0-1.1-.367,1.216,1.216,0,0,0-.734.49l-.184.184c-.122.123-.306.367-.367.367a1.282,1.282,0,0,1-.367-.245c-.122-.061-.245-.184-.367-.245a1.282,1.282,0,0,0-.673-.245,1.09,1.09,0,0,0-.612.245c-.123.123-.245.184-.367.306s-.306.306-.367.306a1.415,1.415,0,0,1-.429-.306,1.627,1.627,0,0,0-.367-.306,1.086,1.086,0,0,0-.612-.245h-.061a1.509,1.509,0,0,0-.673.245c-.122.061-.245.184-.367.245a.93.93,0,0,1-.367.245c-.061,0-.245-.245-.367-.367l-.184-.184a1.219,1.219,0,0,0-.734-.49,1.708,1.708,0,0,0-1.1.367h-.061a2.03,2.03,0,0,1-.367.184c-.061,0-.122-.122-.184-.245a708151458063.265,708151458063.265,0,0,1-.245-.489,1.092,1.092,0,0,0-.49-.429c-.061,0-.122-.061-.184-.061a2.181,2.181,0,0,0-.612-.122,4.359,4.359,0,0,1,1.894-1.1ZM132.4,91.115a1.332,1.332,0,0,1,.184.306c.184.306.429.8.918.857a1.6,1.6,0,0,0,1.04-.306,3.638,3.638,0,0,1,.49-.245c.061,0,.245.245.306.306.245.306.551.673.979.673.429.061.734-.245,1.04-.49a1.409,1.409,0,0,1,.429-.306c.061,0,.245.184.367.306a2.4,2.4,0,0,0,.612.49.811.811,0,0,0,.857,0,2.4,2.4,0,0,0,.612-.49c.123-.122.306-.306.367-.306a1.415,1.415,0,0,1,.429.306,1.663,1.663,0,0,0,1.04.49,1.6,1.6,0,0,0,.979-.673c.122-.122.245-.306.306-.306a1.21,1.21,0,0,1,.49.245c.306.184.673.429,1.04.306a1.591,1.591,0,0,0,.918-.857c.061-.122.184-.245.184-.306a1.2,1.2,0,0,0,.49-.061l-.367,1.713v.061a.2.2,0,0,1-.184.184c-1.1.061-2.2.122-3.366.184h-6.792l-3.366-.184a.162.162,0,0,1-.184-.184v-.061l-.367-1.713a1.686,1.686,0,0,0,.549.061Zm10.647,6.058c.061,0,.123.122.123.367a.536.536,0,0,1-.123.367H136.5c-.367,0-.429-.734-.429-1.163a3.177,3.177,0,0,1,.122-.857c.061-.184.061-.306.122-.306h4.834c.061,0,.122.122.122.306a.891.891,0,0,1-.061.367h-1.652a.437.437,0,0,0-.429.49.419.419,0,0,0,.429.429Zm4.1-2.386a.2.2,0,0,1-.184.184h-5.14a.983.983,0,0,0-.673-.306h-4.834a.6.6,0,0,0-.551.245l-.061.061h-4.1a.2.2,0,0,1-.184-.184v-.857a.2.2,0,0,1,.184-.184h.306a1.291,1.291,0,0,0,.612.245l3.366.184h.122c1.1.061,2.2.061,3.3.061,1.163,0,2.325,0,3.426-.061l3.366-.184a1.286,1.286,0,0,0,.673-.245h.306a.2.2,0,0,1,.184.184v.857Zm-8.383-10.28a1.136,1.136,0,0,1-.367-1.346,2.558,2.558,0,0,1,.673-.918.476.476,0,0,1,.673.673,2.652,2.652,0,0,0-.367.429c-.061.061-.061.122-.122.184a.311.311,0,0,0,.061.306h.184a1.616,1.616,0,0,1,.367.306.976.976,0,0,1,.245.734,1.964,1.964,0,0,1-.612,1.346.444.444,0,0,1-.612,0,.48.48,0,0,1,0-.673,1.271,1.271,0,0,0,.306-.734v-.061a.867.867,0,0,1-.184-.122.468.468,0,0,1-.244-.122Zm-3.121.428a1.136,1.136,0,0,1-.367-1.346,2.558,2.558,0,0,1,.673-.918.476.476,0,1,1,.673.673,2.651,2.651,0,0,0-.367.429c-.061.061-.061.122-.122.184a.311.311,0,0,0,.061.306c.061.061.122.061.122.122a1.616,1.616,0,0,1,.367.306.976.976,0,0,1,.245.734,1.964,1.964,0,0,1-.612,1.346.444.444,0,0,1-.612,0,.48.48,0,0,1,0-.673,1.129,1.129,0,0,0,.306-.734V85.3a.867.867,0,0,1-.184-.122c0-.123-.122-.184-.183-.245Zm6.241,0a1.061,1.061,0,0,1-.367-1.346,2.558,2.558,0,0,1,.673-.918.476.476,0,0,1,.673.673,2.65,2.65,0,0,0-.367.429c-.061.061-.061.122-.123.184a.311.311,0,0,0,.061.306c.061.061.122.061.122.122a1.615,1.615,0,0,1,.367.306,1.116,1.116,0,0,1,.245.734,1.964,1.964,0,0,1-.612,1.346.444.444,0,0,1-.612,0,.48.48,0,0,1,0-.673,1.666,1.666,0,0,0,.367-.734V85.3a.867.867,0,0,1-.184-.122.473.473,0,0,0-.244-.245Z" transform="translate(-91.555 -59.083)" fill="#a4a4a4"/></svg>