<svg xmlns="http://www.w3.org/2000/svg" width="245.849" height="148.885" viewBox="0 0 245.849 148.885"><g transform="translate(0 0)"><path d="M815.111,520.407l2.175-16.5a53.7,53.7,0,0,1,25.5-4.15C829.953,508.514,829.81,527.533,820.54,540a32.3,32.3,0,0,1-24.89,12.822l-10.563,5.27a54.127,54.127,0,0,1,15.161-42.71,52.282,52.282,0,0,1,10.345-8.063C812.446,513.865,815.111,520.407,815.111,520.407Z" transform="translate(-606.993 -410.399)" fill="#f2f2f2"/><path d="M807.286,218.889a9.216,9.216,0,0,1,6.205-5.276c3.04-.791,7.493.414,9.778,2.144,4.181,3.164,5.2,14.034,2.329,17.469-.571-.023-2.543-.04-3.121-.056l-.818-2.07v2.05c-4.514-.106-9.213-.04-13.915.029C807.324,230.746,806.32,221.228,807.286,218.889Z" transform="translate(-622.465 -209.257)" fill="#2f2e41"/><path d="M610.027,435.844H605.91l-1.959-15.88h6.076Z" transform="translate(-424.439 -295.137)" fill="#9e616a"/><path d="M722.274,428.446l-3.984,1.039-5.9-14.873,5.88-1.533Z" transform="translate(-500.646 -290.299)" fill="#9e616a"/><ellipse cx="6.521" cy="6.521" rx="6.521" ry="6.521" transform="translate(184.586 8.305)" fill="#9e616a"/><path d="M805.047,218.028a8.19,8.19,0,0,1,12.452,7.148,22,22,0,0,1-11.356.219l-.918-2.246-.541,2.247a2.759,2.759,0,0,1-3.556,0A8.363,8.363,0,0,1,805.047,218.028Z" transform="translate(-618.421 -211.693)" fill="#2f2e41"/><path d="M783.287,675.035h-2.921l-.521-2.758-1.336,2.758H770.76a1.742,1.742,0,0,1-.99-3.175l6.187-4.273V664.8l6.508.388Z" transform="translate(-595.858 -526.51)" fill="#2f2e41"/><path d="M912.108,665.852l-2.827.737-1.2-2.537-.6,3.006-7.5,1.955a1.742,1.742,0,0,1-1.759-2.823l4.91-5.7-.7-2.7,6.4-1.266Z" transform="translate(-686.365 -520.7)" fill="#2f2e41"/><path d="M827.886,457.742c-2.52-9.367-5.321-18.527-12.068-24.8l-1.857-27.256c2.612-4.851-4.17-17.654-4.17-17.654l-2.369-3.449L791,387.429h0c-3.843,10.483-5.717,13.067-5.5,32.751s.757,40.129.757,40.129h-.237a1.486,1.486,0,1,0,0,2.972h7.431a1.486,1.486,0,1,0,0-2.972h-.192c4.362-12.26,5.141-31.117,5.334-51.052l6.2,25.193,14.989,23.2a1.482,1.482,0,0,0,.119,2.96h7.431a1.485,1.485,0,0,0,.548-2.865Z" transform="translate(-606.764 -329.581)" fill="#2f2e41"/><path d="M815.847,318.7h0a1.185,1.185,0,0,0-1.072-.89c-2.022-2.052-3.537-20.267-1.947-21.526l0-.023-.474-10.123a1.5,1.5,0,0,0-1.4-1.424l-2.5-.164a.133.133,0,0,1-.128-.132,2.1,2.1,0,0,0-2.1-2.1h-7.41a1.971,1.971,0,0,0-1.955,1.725.131.131,0,0,1-.133.118h0a3.521,3.521,0,0,0-3.542,2.92c-1.013,5.894-.535,18.2.469,25.633.349,2.589-2.318,7.56-2.45,9.726a1.594,1.594,0,0,0,.4,1.156,1.187,1.187,0,0,0-.822,1.429h0a1.189,1.189,0,0,0,1.443.862l22.769-5.74A1.189,1.189,0,0,0,815.847,318.7Z" transform="translate(-611.12 -257.713)" fill="#e6e6e6"/><path d="M706.02,320.263a2.9,2.9,0,0,1,3.9,2.138l22.88,4.921-3.537,4.023-21.823-5.466a2.917,2.917,0,0,1-1.421-5.616Z" transform="translate(-550.268 -284.242)" fill="#9e616a"/><path d="M750.2,310.552c-3.532,1.849-24.871-5.384-25.8-5.7l-.237-.081,4.388-4.034,16.883,2.472.512-9.885a5.288,5.288,0,1,1,10.3,1.942l-4.178,12.562a6.316,6.316,0,0,1-1.6,2.543A1.119,1.119,0,0,1,750.2,310.552Z" transform="translate(-564.334 -261.925)" fill="#e6e6e6"/><path d="M425.49,588.244H293.42l-.033-.1-.033-.1c-.432-1.373-.827-2.765-1.182-4.165s-.671-2.81-.945-4.219c-.372-1.913-.671-3.846-.894-5.785s-.37-3.885-.44-5.823A25.557,25.557,0,0,1,315.5,541.579h90.409a25.584,25.584,0,0,1,25.48,28.332h0a46.04,46.04,0,0,1-1.294,6.845,50.977,50.977,0,0,1-2.358,6.811q-.483,1.13-1.027,2.266t-1.139,2.255l-.042.079Z" transform="translate(-259.132 -439.916)" fill="#e6e6e6"/><path d="M440.724,535.832H345.908a7.877,7.877,0,1,1,0-15.753h94.817a7.877,7.877,0,1,1,0,15.753Z" transform="translate(-292.973 -424.806)" fill="#ff4779"/><path d="M453.2,473.833H356.687l-.065-.208a55.527,55.527,0,0,1-2.53-14.615,18.764,18.764,0,0,1,18.773-19.4h66a18.766,18.766,0,0,1,18.678,20.77,36.848,36.848,0,0,1-4.254,13.3Z" transform="translate(-304.252 -368.254)" fill="#e6e6e6"/><path d="M459.757,435.832H389.908a7.877,7.877,0,0,1,0-15.753h69.849a7.877,7.877,0,0,1,0,15.753Z" transform="translate(-323.895 -354.53)" fill="#ff4779"/><path d="M465.849,367.6a15.624,15.624,0,0,0-11.619-5.19H399.662A15.566,15.566,0,0,0,384.09,378.5a45.988,45.988,0,0,0,2.092,12.1l.065.208h79.869l.083-.158a30.509,30.509,0,0,0,3.522-11.015A15.517,15.517,0,0,0,465.849,367.6Z" transform="translate(-325.336 -314.001)" fill="#e6e6e6"/><path d="M493.96,362.409H442.414a7.877,7.877,0,0,0,7.493,10.305h36.56a7.877,7.877,0,0,0,7.493-10.305Z" transform="translate(-366.061 -314.001)" fill="#ff4779"/><path d="M431.349,672.262q-.963,2.256-2.155,4.5H297.52a76.516,76.516,0,0,1-2.119-8.352,2.157,2.157,0,0,1,1.754-.41,2.933,2.933,0,0,1,1.54,1.147,13.247,13.247,0,0,1,2.009,5.026,9.261,9.261,0,0,1,1.766-2.91,3.378,3.378,0,0,1,2.509-1.031,4.1,4.1,0,0,1,1.37-1.453,2.374,2.374,0,0,1,2.619.033,2.923,2.923,0,0,1,.924,1.682,13.281,13.281,0,0,1-.27,5.41,9.221,9.221,0,0,1,2.818-1.911,3.77,3.77,0,0,1,1.519-.223,9.171,9.171,0,0,1,.773-2.859,4.651,4.651,0,0,1,1.724-2.131,2.374,2.374,0,0,1,2.619.033A2.923,2.923,0,0,1,320,670.49a13.28,13.28,0,0,1-.27,5.41,9.22,9.22,0,0,1,2.818-1.911,3.771,3.771,0,0,1,1.519-.223,9.172,9.172,0,0,1,.773-2.859,4.651,4.651,0,0,1,1.724-2.131,2.374,2.374,0,0,1,2.619.033,2.924,2.924,0,0,1,.924,1.682,13.28,13.28,0,0,1-.27,5.41,9.22,9.22,0,0,1,2.818-1.911,3.77,3.77,0,0,1,1.519-.223,9.173,9.173,0,0,1,.773-2.859,4.652,4.652,0,0,1,1.724-2.131,2.374,2.374,0,0,1,2.619.033,2.924,2.924,0,0,1,.924,1.682,13.28,13.28,0,0,1-.27,5.41,9.22,9.22,0,0,1,2.818-1.911,3.771,3.771,0,0,1,1.519-.223,9.172,9.172,0,0,1,.773-2.859,4.651,4.651,0,0,1,1.724-2.131,2.374,2.374,0,0,1,2.619.033,2.924,2.924,0,0,1,.924,1.682,13.281,13.281,0,0,1-.27,5.41,9.22,9.22,0,0,1,2.818-1.911,3.77,3.77,0,0,1,1.519-.223,9.173,9.173,0,0,1,.773-2.859,4.651,4.651,0,0,1,1.724-2.131,2.374,2.374,0,0,1,2.619.033,2.924,2.924,0,0,1,.924,1.682,13.279,13.279,0,0,1-.27,5.41,9.221,9.221,0,0,1,2.818-1.911,3.771,3.771,0,0,1,1.519-.223,9.171,9.171,0,0,1,.773-2.859,4.651,4.651,0,0,1,1.724-2.131,2.374,2.374,0,0,1,2.619.033,2.924,2.924,0,0,1,.924,1.682,13.28,13.28,0,0,1-.27,5.41,9.221,9.221,0,0,1,2.818-1.911,3.77,3.77,0,0,1,1.519-.223,9.171,9.171,0,0,1,.773-2.859,4.651,4.651,0,0,1,1.724-2.131,2.374,2.374,0,0,1,2.619.033,2.924,2.924,0,0,1,.924,1.682,13.28,13.28,0,0,1-.271,5.41,9.222,9.222,0,0,1,2.818-1.911,3.771,3.771,0,0,1,1.519-.223,9.171,9.171,0,0,1,.773-2.859,4.651,4.651,0,0,1,1.724-2.131,2.374,2.374,0,0,1,2.619.033,2.924,2.924,0,0,1,.924,1.682,13.28,13.28,0,0,1-.27,5.41,9.221,9.221,0,0,1,2.818-1.911,3.77,3.77,0,0,1,1.519-.223,9.171,9.171,0,0,1,.773-2.859,4.651,4.651,0,0,1,1.724-2.131,2.374,2.374,0,0,1,2.619.033,2.924,2.924,0,0,1,.924,1.682,13.281,13.281,0,0,1-.27,5.41,9.22,9.22,0,0,1,2.818-1.911,3.771,3.771,0,0,1,1.519-.223,9.172,9.172,0,0,1,.773-2.859,4.651,4.651,0,0,1,1.724-2.131,2.374,2.374,0,0,1,2.619.033,2.924,2.924,0,0,1,.924,1.682,13.279,13.279,0,0,1-.27,5.41,9.221,9.221,0,0,1,2.818-1.911,3.77,3.77,0,0,1,1.519-.223,9.174,9.174,0,0,1,.773-2.859,4.652,4.652,0,0,1,1.724-2.131,2.374,2.374,0,0,1,2.619.033,2.923,2.923,0,0,1,.924,1.682,13.281,13.281,0,0,1-.27,5.41,9.22,9.22,0,0,1,2.818-1.911,3.77,3.77,0,0,1,1.519-.223,9.172,9.172,0,0,1,.773-2.859,4.651,4.651,0,0,1,1.724-2.131,2.373,2.373,0,0,1,2.619.033,2.924,2.924,0,0,1,.924,1.682A7.883,7.883,0,0,1,431.349,672.262Z" transform="translate(-263.014 -528.728)" fill="#ccc"/><path d="M389.28,391.648a6.81,6.81,0,0,1,6.462.7,6.419,6.419,0,0,1,2.635,6.016,6.509,6.509,0,0,1-1.548,3.608l.315-.131c-.971-.012-1.5-1.148-1.355-2.006.2-1.162,1.527-1.763,2.581-1.85a9.064,9.064,0,0,1,4.11,1.041,37.449,37.449,0,0,0,4.262,1.487,36.9,36.9,0,0,0,9.045,1.349,35.79,35.79,0,0,0,4.517-.176,14.78,14.78,0,0,0,4.063-.837,5.186,5.186,0,0,0,2.979-2.714,3.579,3.579,0,0,0-.363-3.646.448.448,0,0,0-.745.2,7.47,7.47,0,0,0,1.291,5.889,7.357,7.357,0,0,0,5.629,3.02,14.112,14.112,0,0,0,7.181-2c2.29-1.21,4.378-2.761,6.706-3.9,2.245-1.1,4.832-1.915,7.33-1.253,1.991.527,4.1,2.266,3.439,4.552a2.076,2.076,0,0,1-1.924,1.624,1.8,1.8,0,0,1-1.857-1.4c-.118-1.058.9-1.889,1.8-2.2a9.894,9.894,0,0,1,4.053,0,8.851,8.851,0,0,0,6.079-1.719,9.356,9.356,0,0,0,3.486-4.979,8.528,8.528,0,0,0,.263-1.557c.046-.572-.846-.569-.892,0a8.158,8.158,0,0,1-3,5.522,8.3,8.3,0,0,1-2.84,1.55,8.575,8.575,0,0,1-3.477.256,8.678,8.678,0,0,0-4.073.128,3.522,3.522,0,0,0-2.219,2.238c-.529,2.089,1.862,3.6,3.7,2.863,2.056-.83,2.374-3.6,1.278-5.3-1.316-2.042-3.943-2.836-6.264-2.684-5.513.361-9.513,4.779-14.488,6.619-2.348.868-5.059,1.2-7.3-.141a6.705,6.705,0,0,1-3.152-5.283,6.086,6.086,0,0,1,.12-1.6l-.745.2a2.648,2.648,0,0,1,.236,2.518,3.95,3.95,0,0,1-1.932,2.1,9.47,9.47,0,0,1-3.09.9,32.238,32.238,0,0,1-3.592.317A35.947,35.947,0,0,1,403.8,398.6c-2.037-.782-4.2-1.99-6.438-1.324-1.69.5-2.986,2.119-2.28,3.905a2.352,2.352,0,0,0,1.674,1.517.949.949,0,0,0,.619-.025,1.859,1.859,0,0,0,.452-.512,6.786,6.786,0,0,0,.763-1.266,7.884,7.884,0,0,0,.412-5.477,7.537,7.537,0,0,0-10.167-4.538c-.524.231-.071,1,.45.77Z" transform="translate(-328.51 -333.572)" fill="#3f3d56"/><path d="M358,483.046a22.476,22.476,0,0,0,14.285,12.906,18.862,18.862,0,0,0,3.328.691,4.34,4.34,0,0,0,3.143-.633c1.281-.982,1.253-3.788-.775-3.767a2.159,2.159,0,0,0-1.967,1.883,3.282,3.282,0,0,0,1.377,2.827,7.81,7.81,0,0,0,6.537,1.2c2.549-.531,4.782-1.971,7.017-3.234,2.559-1.446,5.6-2.9,8.61-2.123,2.283.587,4.364,2.983,3.62,5.43l.655-.266a2.021,2.021,0,0,1-.843-2.641,3.219,3.219,0,0,1,3.092-1.632,10.755,10.755,0,0,1,4.378,1.361,24.3,24.3,0,0,0,3.95,1.456,23.95,23.95,0,0,0,16.037-1.423,20.108,20.108,0,0,0,3.5-2.032c.867-.639,1.868-1.758,1.17-2.881a1.547,1.547,0,0,0-1.24-.76c-.61,0-.878.421-1.068.938a5.308,5.308,0,0,0-.012,3.4,7.253,7.253,0,0,0,5.284,4.749,15.189,15.189,0,0,0,8.236-.625,23.413,23.413,0,0,0,12.233-9.263q.547-.824,1.017-1.7c.274-.5-.5-.955-.77-.45a22.5,22.5,0,0,1-10.762,9.815c-4.2,1.824-11.153,3.167-13.9-1.676a5.089,5.089,0,0,1-.685-3.174c.05-.35.162-1.362.675-1.031.581.374.265,1.035-.1,1.43a11.6,11.6,0,0,1-3.165,2.068,22,22,0,0,1-3.587,1.461A22.834,22.834,0,0,1,412,494.754c-2.585-1.059-5.536-2.938-8.338-1.385a3.256,3.256,0,0,0-1.733,2.774,2.693,2.693,0,0,0,1.456,2.583.454.454,0,0,0,.655-.267,5.023,5.023,0,0,0-1.568-5.03,6.988,6.988,0,0,0-5.883-1.64c-4.826.666-8.325,4.624-13.049,5.532-2.038.392-4.552.172-6.018-1.475-.655-.736-1.025-2.226.2-2.659.9-.318,1.179.747.979,1.4-.619,2.025-4.039,1.067-5.458.7a21.119,21.119,0,0,1-5.55-2.332,21.412,21.412,0,0,1-8.827-10.15c-.214-.524-1.077-.295-.86.237Z" transform="translate(-306.984 -398.406)" fill="#ccc"/><path d="M292.609,602.11c6.836-1.288,15.24-2.586,20.368,3.352a8.947,8.947,0,0,1,2.04,4.052c.136.676.306,1.426-.381,1.844a1.811,1.811,0,0,1-1.745.036c-1.5-.831-.663-3.041.464-3.765,1.535-.986,3.51-.565,5.085.077,1.709.7,3.326,1.587,5.055,2.243a37.45,37.45,0,0,0,5.016,1.51,38.924,38.924,0,0,0,10.775.9,35.354,35.354,0,0,0,10.276-2.022,6.715,6.715,0,0,0,3.352-2.307,2.93,2.93,0,0,0-.1-3.464,2.877,2.877,0,0,0-3.584-.861,3.134,3.134,0,0,0-1.3,1.331c-.237.465-.547,1.386-.244,1.876.154.249.53.348.777.469q.619.3,1.248.586,1.1.494,2.227.928a42.751,42.751,0,0,0,5.036,1.585,44.993,44.993,0,0,0,20.511.254,42.733,42.733,0,0,0,4.965-1.421,27,27,0,0,0,4.57-1.945c1.114-.648,2.419-1.761,2.314-3.187a2.007,2.007,0,0,0-2.107-1.842,2.887,2.887,0,0,0-2.577,1.6,4.036,4.036,0,0,0,.883,4.031c1.906,2.366,5.158,3.216,8.076,3.187a29,29,0,0,0,9.722-2.263c3.512-1.3,7.178-2.744,10.994-2.513,3.438.208,6.678,2.242,10.169,1.82,3.031-.367,4.809-2.792,5.6-5.553a25.167,25.167,0,0,0,.726-4.106c.064-.569-.829-.565-.892,0-.3,2.711-.764,6.148-3.16,7.869-2.906,2.087-6.691.248-9.737-.494a18.628,18.628,0,0,0-10.351.838c-3.337,1.093-6.55,2.588-10.026,3.212-3.019.542-6.361.482-8.994-1.278-1.294-.864-2.837-2.564-2.242-4.266.34-.972,2.111-1.768,2.831-.748,1.059,1.5-1.6,2.927-2.627,3.4a40.707,40.707,0,0,1-4.822,1.851,43.634,43.634,0,0,1-32.5-2.623l.221.385a2.051,2.051,0,0,1,2.886-2.174,2.144,2.144,0,0,1,.352,3.527,9.048,9.048,0,0,1-3.923,1.926,37.091,37.091,0,0,1-4.64,1.074,37.839,37.839,0,0,1-19.573-1.994c-2.792-1.07-5.684-3.243-8.814-2.839a4.111,4.111,0,0,0-3.1,1.883,3.248,3.248,0,0,0-.087,3.272c.97,1.589,4.368,1.516,4.427-.713.067-2.539-1.536-5.075-3.326-6.739-5.575-5.182-13.529-3.946-20.346-2.661-.563.106-.325.966.237.86Z" transform="translate(-260.659 -479.651)" fill="#ccc"/><path d="M567.274,284.389c2.168-.37,3.1-2.986,2.589-4.913a8,8,0,0,0-1.972-3.27c-1-1.093-2.114-2.092-3.182-3.12l-3.918-3.771a.45.45,0,0,0-.745.2,14.368,14.368,0,0,0,2.471,10.475,15.158,15.158,0,0,0,1.848,2.111,7.984,7.984,0,0,1,1.787,2.111l1.2.879a4.244,4.244,0,0,0-.178-.693A.507.507,0,0,0,567.274,284.389Z" transform="translate(-448.881 -248.488)" fill="#fd6584"/><path d="M580.911,319.579h-.892a7.458,7.458,0,0,1,.212,3.437c-.073,1.155-.172,2.309-.26,3.463q-.295,3.893-.59,7.786c-.043.572.849.57.892,0l.523-6.9.267-3.526A24.641,24.641,0,0,0,580.911,319.579Z" transform="translate(-462.586 -283.901)" fill="#3f3d56"/><path d="M582,311.428a4.111,4.111,0,0,0-.338-3.383.446.446,0,0,0-.77.45,3.2,3.2,0,0,1,.248,2.7.446.446,0,0,0,.86.237Z" transform="translate(-463.608 -275.649)" fill="#3f3d56"/><path d="M450.275,281.389c2.168-.37,3.1-2.986,2.589-4.913a8,8,0,0,0-1.972-3.27c-1-1.093-2.114-2.092-3.182-3.12l-3.917-3.771a.449.449,0,0,0-.745.2,14.367,14.367,0,0,0,2.471,10.475,15.16,15.16,0,0,0,1.847,2.111,7.981,7.981,0,0,1,1.787,2.111l1.2.879a4.249,4.249,0,0,0-.178-.693A.508.508,0,0,0,450.275,281.389Z" transform="translate(-366.658 -246.38)" fill="#fd6584"/><path d="M463.911,316.579h-.892a7.457,7.457,0,0,1,.212,3.437c-.073,1.155-.172,2.309-.26,3.463l-.59,7.786c-.043.572.849.57.892,0l.523-6.9.267-3.526A24.662,24.662,0,0,0,463.911,316.579Z" transform="translate(-380.362 -281.793)" fill="#3f3d56"/><path d="M465,308.428a4.112,4.112,0,0,0-.338-3.383.446.446,0,0,0-.77.45,3.2,3.2,0,0,1,.248,2.7.446.446,0,1,0,.86.237Z" transform="translate(-381.384 -273.541)" fill="#3f3d56"/><path d="M505.274,276.389c2.168-.37,3.1-2.986,2.589-4.913a8,8,0,0,0-1.972-3.27c-1-1.093-2.114-2.092-3.182-3.12l-3.918-3.771a.45.45,0,0,0-.745.2,14.367,14.367,0,0,0,2.471,10.475,15.162,15.162,0,0,0,1.847,2.111,7.983,7.983,0,0,1,1.787,2.111l1.2.879a4.243,4.243,0,0,0-.178-.693.5.5,0,0,0,.1-.007Z" transform="translate(-405.31 -242.866)" fill="#fd6584"/><path d="M518.911,311.579h-.892a7.455,7.455,0,0,1,.212,3.437c-.073,1.155-.172,2.309-.26,3.463l-.59,7.786c-.043.572.849.57.892,0l.523-6.9.267-3.526A24.654,24.654,0,0,0,518.911,311.579Z" transform="translate(-419.014 -278.279)" fill="#3f3d56"/><path d="M520,303.428a4.112,4.112,0,0,0-.338-3.383.446.446,0,0,0-.77.45,3.2,3.2,0,0,1,.248,2.7.446.446,0,1,0,.86.237Z" transform="translate(-420.037 -270.027)" fill="#3f3d56"/><path d="M545.908,487.469a1.807,1.807,0,0,0-1.914-1.393,1.919,1.919,0,0,0-1.382,1.425,5.647,5.647,0,0,0-.057,2.079,8.1,8.1,0,0,0-2.587-2.062,1.783,1.783,0,0,0-1.163-.143,1.449,1.449,0,0,0-.95,1.287,2.845,2.845,0,0,0,.442,1.616,5.736,5.736,0,0,0,4.067,2.79l-.276-.361a6.228,6.228,0,0,0,3.332-2.748A3.382,3.382,0,0,0,545.908,487.469Z" transform="translate(-433.402 -400.895)" fill="#ff4779"/><path d="M409.908,605.469a1.807,1.807,0,0,0-1.914-1.394,1.919,1.919,0,0,0-1.382,1.425,5.647,5.647,0,0,0-.057,2.079,8.1,8.1,0,0,0-2.587-2.062,1.783,1.783,0,0,0-1.163-.143,1.449,1.449,0,0,0-.95,1.287,2.846,2.846,0,0,0,.442,1.616,5.736,5.736,0,0,0,4.067,2.791l-.276-.361a6.228,6.228,0,0,0,3.332-2.748A3.381,3.381,0,0,0,409.908,605.469Z" transform="translate(-337.826 -483.821)" fill="#ff4779"/><path d="M433.908,429.469a1.807,1.807,0,0,0-1.914-1.394,1.919,1.919,0,0,0-1.382,1.425,5.65,5.65,0,0,0-.057,2.079,8.1,8.1,0,0,0-2.587-2.062,1.782,1.782,0,0,0-1.163-.143,1.449,1.449,0,0,0-.95,1.287,2.845,2.845,0,0,0,.442,1.616,5.736,5.736,0,0,0,4.067,2.791l-.276-.361a6.228,6.228,0,0,0,3.332-2.748A3.382,3.382,0,0,0,433.908,429.469Z" transform="translate(-354.692 -360.134)" fill="#ff4779"/><path d="M649.827,266.845c-.735,3.231-1.085,6.894.877,9.785a6.718,6.718,0,0,0,3.477,2.634,9.866,9.866,0,0,0,4.431.272c3.346-.464,6.319-2.206,9.609-2.883a7.522,7.522,0,0,1,4.391.177,3.047,3.047,0,0,1,2.155,2.531,2.882,2.882,0,0,1-2.191,2.5,11.607,11.607,0,0,1-4.5.253,7.088,7.088,0,0,0-4.653,1.077,8.093,8.093,0,0,0-2.586,3.507,37.232,37.232,0,0,0-1.394,5.159,22.9,22.9,0,0,1-1.644,4.5,23.288,23.288,0,0,1-5.69,7.376,7.483,7.483,0,0,1-4.193,2.127,3.17,3.17,0,0,1-3.208-1.7,2.436,2.436,0,0,1,1.14-2.892,1.887,1.887,0,0,1,2.549,1.272,1.628,1.628,0,0,1-.17,1.468c-.32.478.452.925.77.45a2.789,2.789,0,0,0-.552-3.467,2.6,2.6,0,0,0-3.418-.255,3.377,3.377,0,0,0-1.234,3.489,3.715,3.715,0,0,0,3.075,2.461,6.35,6.35,0,0,0,4.605-1.331,20.64,20.64,0,0,0,3.647-3.369,24.2,24.2,0,0,0,4.829-8.634c.981-3.145,1.053-7.3,3.969-9.424,1.5-1.093,3.34-.972,5.1-.871a8.708,8.708,0,0,0,4.493-.631,3.532,3.532,0,0,0,2.145-3.018,3.652,3.652,0,0,0-2.112-3.115c-3.046-1.659-6.7-.321-9.7.787-3.009,1.115-6.445,2.423-9.643,1.25a5.982,5.982,0,0,1-3.3-3.157,10.028,10.028,0,0,1-.706-5.288,23.01,23.01,0,0,1,.49-2.8c.127-.559-.732-.8-.86-.237Z" transform="translate(-507.786 -246.617)" fill="#3f3d56"/><path d="M632.4,210.711a29.975,29.975,0,0,1-3.941,8.275q-.642.936-1.349,1.825a9.656,9.656,0,0,0-1.323-1.849,24.641,24.641,0,0,0-6.548-4.565,20.223,20.223,0,0,1-6.367-4.788,8.441,8.441,0,0,1-1.557-3.207,5.6,5.6,0,0,1,.693-4.56,6.02,6.02,0,0,1,6.3-2.045,10.949,10.949,0,0,1,5.668,3.959c-.484-2.235,1.872-4.393,4.152-4.2a5.8,5.8,0,0,1,4.714,4.4A12.356,12.356,0,0,1,632.4,210.711Z" transform="translate(-484.891 -199.546)" fill="#ff4779"/><g transform="translate(126.42 6.855)" opacity="0.2"><path d="M628.909,235.193q-.642.936-1.349,1.825a9.659,9.659,0,0,0-1.323-1.849,24.639,24.639,0,0,0-6.548-4.565,20.221,20.221,0,0,1-6.367-4.788,8.442,8.442,0,0,1-1.558-3.207,22.52,22.52,0,0,1,13.643,7.238A21.906,21.906,0,0,1,628.909,235.193Z" transform="translate(-611.765 -222.608)"/></g><path d="M845.779,380.133a2.9,2.9,0,0,0,2.763-3.487l8.556-5.456-4.823-2.331-7.37,5.547a2.917,2.917,0,0,0,.875,5.726Z" transform="translate(-647.684 -318.534)" fill="#9e616a"/><path d="M850.507,298.176s-5.022-4.061-3.029-6.942,7.082.256,7.082.256l14.814,16.839s-15.736,14.283-15.248,12.162-3.162-3.779-3.162-3.779l7.022-7.9-1.54-.747.628-.361-.661-1.549Z" transform="translate(-650.668 -263.126)" fill="#e6e6e6"/><path d="M432.289,698.118a.353.353,0,0,1-.354.354l-66.886.009-4.672,0-3.082,0h-3.409l-1.861,0-5.166,0-81.281.042-.618,0-36.357.012H228l-30.948.012h-.6l-9.66,0a.354.354,0,1,1,0-.707l9.761,0h.6l30.939-.012h.6l36.075-.012h.615l30.74-.012h.4l49.765-.03,5.157,0,2.36,0,3.73,0h3.186l5.02,0,66.188-.012a.353.353,0,0,1,.354.354Z" transform="translate(-186.44 -549.678)" fill="#cacaca"/><path d="M861.789,216.821a5.868,5.868,0,0,0-2.449-2.474c-1.094-.442-2.645.086-2.794,1.257-.111.875.556,1.626,1.059,2.351s.829,1.818.173,2.407l-.369.19a3.689,3.689,0,0,0,3,1.43,2.657,2.657,0,0,0,2.447-2.058A4.571,4.571,0,0,0,861.789,216.821Z" transform="translate(-657.361 -209.839)" fill="#2f2e41"/></g></svg>